<?xml version="1.0" encoding="UTF-8"?>
<svg width="1239px" height="931px" viewBox="0 0 1239 931" version="1.1" xmlns="http://www.w3.org/2000/svg" xmlns:xlink="http://www.w3.org/1999/xlink">
    <!-- Generator: sketchtool 52.6 (67491) - http://www.bohemiancoding.com/sketch -->
    <title>1E28391C-94C1-4CF5-AA01-F4ED305CD621</title>
    <desc>Created with sketchtool.</desc>
    <defs>
        <linearGradient x1="73.465829%" y1="21.3404605%" x2="125.435637%" y2="104.377014%" id="linearGradient-1">
            <stop stop-color="#F7F7F7" offset="0%"></stop>
            <stop stop-color="#42E8E0" offset="33.4323735%"></stop>
            <stop stop-color="#42E8E0" offset="68.5238357%"></stop>
            <stop stop-color="#42E8E0" offset="100%"></stop>
        </linearGradient>
    </defs>
    <g id="4-Home" stroke="none" stroke-width="1" fill="none" fill-rule="evenodd">
        <g id="4.2-Homescreen" transform="translate(-681.000000, -549.000000)" fill="url(#linearGradient-1)" fill-rule="nonzero">
            <g id="BG" transform="translate(681.000000, 549.000000)">
                <path d="M1233.12792,0.763416607 L1201.16597,19.2198924 L1169.20401,37.678437 L1137.23999,19.2198924 L1105.27804,0.763416607 L1106.5935,0.00206887969 L1104.52309,0.00206887969 L1104.2418,0.163441496 L1103.96051,0.00206887969 L1101.89011,0.00206887969 L1103.20557,0.763416607 L1071.24361,19.2198924 L1039.28166,37.678437 L1007.31763,19.2198924 L975.357745,0.761347727 L976.669068,0.00206887969 L974.598667,0.00206887969 L974.32151,0.161372616 L974.044353,0.00206887969 L971.971883,0.00206887969 L973.285275,0.761347727 L941.32332,19.2178235 L909.361365,37.6763681 L877.397342,19.2178235 L845.43125,0.761347727 L846.744642,0.00206887969 L844.67424,0.00206887969 L844.397083,0.161372616 L844.119927,0.00206887969 L842.049525,0.00206887969 L843.360848,0.761347727 L811.400962,19.2178235 L779.439007,37.6763681 L747.474983,19.2178235 L715.51096,0.759278848 L716.820215,0.00413775939 L714.749813,0.00413775939 L714.476793,0.163441496 L714.201705,0.00413775939 L712.131303,0.00413775939 L713.440558,0.759278848 L681.478603,19.2178235 L649.516648,37.6763681 L617.552625,19.2178235 L585.59067,0.759278848 L586.899925,0.00413775939 L584.829523,0.00413775939 L584.554435,0.163441496 L584.281415,0.00413775939 L582.211013,0.00413775939 L583.520268,0.759278848 L551.558313,19.2178235 L519.596358,37.6763681 L487.630267,19.2178235 L455.668312,0.759278848 L456.97343,0.00620663908 L454.905097,0.00620663908 L454.634145,0.163441496 L454.363193,0.00620663908 L452.292792,0.00620663908 L453.59791,0.759278848 L421.638023,19.2178235 L389.674,37.6763681 L357.709977,19.2178235 L325.748022,0.759278848 L327.05314,0.00620663908 L324.982738,0.00620663908 L324.711787,0.163441496 L324.442903,0.00620663908 L322.370433,0.00620663908 L323.675552,0.759278848 L291.715665,19.2178235 L259.75371,37.6763681 L227.78555,19.2136857 L195.823595,0.753072209 L197.124577,0.00206887969 L195.052107,0.00206887969 L194.78736,0.155165977 L194.520545,0.00206887969 L192.450143,0.00206887969 L193.751125,0.753072209 L161.78917,19.2136857 L129.827215,37.6701615 L97.8611233,19.2116168 L65.8991683,0.751003329 L67.1980817,0.00206887969 L65.1256117,0.00206887969 L64.8629333,0.153097097 L64.600255,0.00206887969 L62.5298533,0.00206887969 L63.8287667,0.751003329 L31.8668117,19.2116168 L0,37.6143017 L0,38.9197648 L31.8668117,57.3245186 L63.8287667,75.7830632 L31.86888,94.2416078 L0,112.646362 L0,113.949756 L31.8709483,132.35451 L63.8329033,150.813054 L31.8709483,169.271599 L0,187.678421 L0,188.979747 L31.8709483,207.384501 L63.8329033,225.840976 L31.8730167,244.30159 L0,262.708412 L0,264.007669 L31.8730167,282.414491 L63.83704,300.873036 L31.875085,319.331581 L0,337.740472 L0,339.03766 L31.875085,357.444482 L63.83704,375.903027 L31.8771533,394.361572 L0,412.770463 L0,414.065582 L31.8792217,432.474473 L63.8411767,450.935087 L31.8792217,469.391563 L0,487.804592 L0,489.097642 L31.8792217,507.504464 L63.843245,525.963009 L31.88129,544.423623 L0,562.834583 L0,564.125564 L31.88129,582.536524 L63.843245,600.995069 L31.8833583,619.453614 L0,637.866643 L0,639.153486 L31.8833583,657.566515 L63.8453133,676.02506 L31.8833583,694.485673 L0,712.898703 L0,714.185546 L31.8854267,732.596506 L63.8473817,751.055051 L31.887495,769.513595 L0,787.928694 L0,789.211399 L31.887495,807.626497 L63.84945,826.087111 L31.887495,844.545655 L0,862.962822 L0,864.243459 L31.8895633,882.658557 L63.8515183,901.117102 L31.8895633,919.575646 L12.1100917,930.997931 L14.1804933,930.997931 L32.92373,920.173553 L64.8877533,901.715008 L96.8497083,920.173553 L115.592945,930.997931 L117.661278,930.997931 L97.883875,919.575646 L65.92192,901.117102 L97.883875,882.658557 L129.84583,864.200012 L161.809853,882.658557 L193.773877,901.117102 L161.811922,919.575646 L142.034518,930.997931 L144.106988,930.997931 L162.848157,920.175621 L194.810112,901.715008 L226.774135,920.175621 L245.517372,930.997931 L247.585705,930.997931 L227.808302,919.575646 L195.846347,901.117102 L227.806233,882.658557 L259.770257,864.202081 L291.73428,882.658557 L323.696235,901.117102 L291.73428,919.575646 L271.956877,930.997931 L274.027278,930.997931 L292.768447,920.175621 L324.73247,901.715008 L356.696493,920.175621 L375.433525,930.997931 L377.505995,930.997931 L357.73066,919.575646 L325.768705,901.115033 L357.728592,882.656488 L389.692615,864.200012 L421.65457,882.658557 L453.616525,901.119171 L421.656638,919.577715 L401.881303,930.997931 L403.951705,930.997931 L422.690805,920.17769 L454.654828,901.719146 L486.616783,920.17769 L505.353815,930.997931 L507.422148,930.997931 L487.65095,919.577715 L455.688995,901.119171 L487.65095,882.660626 L519.612905,864.202081 L551.57486,882.660626 L583.536815,901.121239 L551.576928,919.577715 L531.80573,930.997931 L533.876132,930.997931 L552.611095,920.17769 L584.57305,901.719146 L616.537073,920.17769 L635.272037,930.997931 L637.342438,930.997931 L617.57124,919.577715 L585.609285,901.121239 L617.57124,882.660626 L649.533195,864.202081 L681.497218,882.660626 L713.459173,901.121239 L681.497218,919.577715 L661.72602,930.997931 L663.79849,930.997931 L682.531385,920.17769 L714.495408,901.719146 L746.459432,920.179759 L765.192327,930.997931 L767.262728,930.997931 L747.493598,919.579784 L715.531643,901.121239 L747.49153,882.660626 L779.455553,864.202081 L811.419577,882.662695 L843.381532,901.123308 L811.423713,919.583922 L791.656652,931 L793.727053,931 L812.45788,920.181828 L844.421903,901.723283 L876.383858,920.181828 L895.116753,931 L897.185087,931 L877.418025,919.583922 L845.45607,901.125377 L877.418025,882.666833 L909.37998,864.208288 L941.344003,882.666833 L973.305958,901.125377 L941.344003,919.583922 L921.576942,931 L923.647343,931 L942.37817,920.181828 L974.342193,901.723283 L1006.30622,920.181828 L1025.03498,931 L1027.10538,931 L1007.34038,919.583922 L975.37636,901.125377 L1007.33832,882.666833 L1039.30234,864.208288 L1071.26429,882.666833 L1103.22625,901.125377 L1071.26843,919.583922 L1051.50551,931 L1053.57591,931 L1072.3026,920.183897 L1104.26455,901.723283 L1136.22858,920.183897 L1154.95527,931 L1157.02774,931 L1137.26274,919.583922 L1105.30079,901.125377 L1137.26067,882.666833 L1169.2247,864.210357 L1201.18872,882.666833 L1233.15068,901.125377 L1201.18872,919.583922 L1181.4258,931 L1183.4962,931 L1202.22289,920.183897 L1234.18691,901.723283 L1241,905.660362 L1241,904.464549 L1235.22108,901.127446 L1241,897.792412 L1241,896.5966 L1234.18691,900.531609 L1202.22289,882.070995 L1170.26093,863.612451 L1202.22082,845.153906 L1234.18484,826.69743 L1241,830.630371 L1241,829.434558 L1235.21901,826.097455 L1241,822.760352 L1241,821.566609 L1234.18484,825.499549 L1202.22082,807.041004 L1170.2568,788.58246 L1202.21875,770.123915 L1234.18277,751.66537 L1241,755.60038 L1241,754.404567 L1235.21901,751.067464 L1241,747.728292 L1241,746.53248 L1234.18277,750.469558 L1202.21875,732.011013 L1170.2568,713.552469 L1202.21668,695.093924 L1234.18071,676.635379 L1241,680.572457 L1241,679.376645 L1235.21487,676.037473 L1241,672.696232 L1241,671.502489 L1234.18071,675.439567 L1202.21668,656.978953 L1170.25266,638.51834 L1202.21461,620.059795 L1234.17864,601.601251 L1241,605.540398 L1241,604.344585 L1235.21487,601.005413 L1241,597.664173 L1241,596.46836 L1234.17864,600.405438 L1202.21461,581.946894 L1170.25266,563.488349 L1202.21255,545.029804 L1234.17657,526.57126 L1241,530.510407 L1241,529.314594 L1235.21074,525.973353 L1241,522.630044 L1241,521.4363 L1234.17657,525.375447 L1202.21255,506.916903 L1170.25266,488.458358 L1202.21255,469.999813 L1234.1745,451.541269 L1241,455.482485 L1241,454.286672 L1235.20867,450.943362 L1241,447.600053 L1241,446.40424 L1234.1745,450.345456 L1202.21048,431.886912 L1170.24852,413.428367 L1202.21048,394.969822 L1234.17243,376.511278 L1241,380.454562 L1241,379.25875 L1235.2066,375.913371 L1241,372.567993 L1241,371.372181 L1234.17243,375.315465 L1202.20841,356.856921 L1170.24645,338.398376 L1202.20841,319.9419 L1234.17036,301.483356 L1241,305.42664 L1241,304.230828 L1235.2066,300.885449 L1241,297.540071 L1241,296.344258 L1234.17036,300.287543 L1202.20634,281.82693 L1170.24645,263.368385 L1202.20634,244.911909 L1234.1683,226.453365 L1241,230.396649 L1241,229.200837 L1235.20246,225.85339 L1241,222.505942 L1241,221.31013 L1234.1683,225.255483 L1202.20427,206.796939 L1170.24232,188.338394 L1202.20427,169.879849 L1234.16623,151.423374 L1241,155.368727 L1241,154.172915 L1235.20246,150.823399 L1241,147.475951 L1241,146.280139 L1234.16623,150.225492 L1202.2022,131.766948 L1170.24025,113.308403 L1202.2022,94.8498584 L1234.16623,76.3933827 L1241,80.3387363 L1241,79.1429238 L1235.20246,75.7934076 L1241,72.4438914 L1241,71.2480789 L1234.16623,75.1934325 L1202.2022,56.7348878 L1170.23818,38.2763432 L1202.20014,19.8177986 L1234.16416,1.35925396 L1241,5.30874529 L1241,4.11086395 L1235.20039,0.761347727 L1236.51585,0 L1234.44338,0 L1234.16416,0.161372616 L1233.88287,0 L1231.81246,0 L1233.12792,0.763416607 Z M1072.27778,19.8177986 L1104.2418,1.35925396 L1136.20582,19.8177986 L1168.16778,38.2763432 L1136.20582,56.7348878 L1104.24387,75.1934325 L1072.27984,56.7348878 L1040.31582,38.2763432 L1072.27778,19.8177986 Z M421.64216,432.48068 L453.604115,450.939225 L421.644228,469.3957 L389.682273,487.856314 L357.71825,469.3957 L325.756295,450.937156 L357.716182,432.48068 L389.680205,414.022135 L421.64216,432.48068 Z M390.714372,413.42216 L422.676327,394.965685 L454.638282,376.50714 L486.602305,394.965685 L518.566328,413.424229 L486.604373,431.882774 L454.642418,450.341318 L422.676327,431.880705 L390.714372,413.42216 Z M422.678395,469.995676 L454.642418,451.537131 L486.604373,469.995676 L518.566328,488.452151 L486.606442,506.910696 L454.642418,525.371309 L422.680463,506.910696 L390.718508,488.452151 L422.678395,469.995676 Z M487.640608,469.3957 L455.678653,450.939225 L487.640608,432.48068 L519.602563,414.022135 L551.566587,432.48068 L583.528542,450.939225 L551.568655,469.3957 L519.604632,487.856314 L487.640608,469.3957 Z M520.638798,413.424229 L552.598685,394.967753 L584.562708,376.509209 L616.526732,394.967753 L648.488687,413.424229 L616.526732,431.882774 L584.564777,450.341318 L552.600753,431.882774 L520.638798,413.424229 Z M552.602822,469.995676 L584.564777,451.537131 L616.5288,469.995676 L648.490755,488.456289 L616.5288,506.914834 L584.566845,525.373378 L552.602822,506.912765 L520.640867,488.452151 L552.602822,469.995676 Z M617.562967,469.397769 L585.598943,450.939225 L617.560898,432.48068 L649.524922,414.022135 L681.488945,432.48068 L713.4509,450.939225 L681.488945,469.397769 L649.52699,487.856314 L617.562967,469.397769 Z M650.559088,413.424229 L682.521043,394.967753 L714.485067,376.509209 L746.447022,394.967753 L778.408977,413.428367 L746.44909,431.886912 L714.487135,450.343387 L682.523112,431.884843 L650.559088,413.424229 Z M682.523112,469.997744 L714.487135,451.5392 L746.44909,469.997744 L778.411045,488.456289 L746.44909,506.914834 L714.487135,525.373378 L682.523112,506.914834 L650.563225,488.456289 L682.523112,469.997744 Z M747.485325,469.399838 L715.525438,450.941294 L747.485325,432.482749 L779.44728,414.024204 L811.411303,432.482749 L843.373258,450.941294 L811.411303,469.399838 L779.449348,487.858383 L747.485325,469.399838 Z M812.44547,469.997744 L844.409493,451.5392 L876.373517,469.997744 L908.335472,488.456289 L876.373517,506.916903 L844.411562,525.373378 L812.447538,506.914834 L780.485583,488.456289 L812.44547,469.997744 Z M812.44547,431.886912 L780.481447,413.428367 L812.443402,394.969822 L844.407425,376.511278 L876.371448,394.969822 L908.333403,413.428367 L876.371448,431.886912 L844.409493,450.343387 L812.44547,431.886912 Z M812.443402,356.854852 L780.481447,338.396307 L812.441333,319.937762 L844.405357,301.479218 L876.36938,319.937762 L908.331335,338.398376 L876.36938,356.854852 L844.407425,375.313396 L812.443402,356.854852 Z M811.409235,357.452758 L843.37119,375.913371 L811.409235,394.369847 L779.44728,412.828392 L747.483257,394.369847 L715.521302,375.911303 L747.483257,357.452758 L779.445212,338.994213 L811.409235,357.452758 Z M746.44909,356.854852 L714.487135,375.313396 L682.523112,356.852783 L650.561157,338.394238 L682.521043,319.935694 L714.485067,301.479218 L746.447022,319.937762 L778.408977,338.398376 L746.44909,356.854852 Z M681.486877,357.450689 L713.448832,375.909234 L681.486877,394.367778 L649.524922,412.826323 L617.560898,394.367778 L585.598943,375.909234 L617.55883,357.450689 L649.522853,338.992144 L681.486877,357.450689 Z M616.524663,356.852783 L584.562708,375.313396 L552.598685,356.852783 L520.63673,338.394238 L552.598685,319.935694 L584.56064,301.479218 L616.524663,319.935694 L648.486618,338.394238 L616.524663,356.852783 Z M551.564518,357.450689 L583.526473,375.909234 L551.564518,394.367778 L519.602563,412.826323 L487.63854,394.367778 L455.676585,375.909234 L487.63854,357.450689 L519.602563,338.994213 L551.564518,357.450689 Z M486.604373,356.852783 L454.64035,375.311328 L422.678395,356.850714 L390.71644,338.392169 L422.676327,319.933625 L454.64035,301.477149 L486.602305,319.935694 L518.56426,338.394238 L486.604373,356.852783 Z M421.64216,357.44862 L453.604115,375.907165 L421.64216,394.365709 L389.680205,412.824254 L357.716182,394.363641 L325.754227,375.905096 L357.716182,357.44862 L389.678137,338.990076 L421.64216,357.44862 Z M356.682015,356.848645 L324.717992,375.30719 L292.753968,356.848645 L260.792013,338.3901 L292.753968,319.931556 L324.715923,301.47508 L356.679947,319.931556 L388.641902,338.3901 L356.682015,356.848645 Z M356.682015,394.963616 L388.64397,413.42216 L356.682015,431.880705 L324.72006,450.33925 L292.756037,431.878636 L260.794082,413.420091 L292.756037,394.963616 L324.717992,376.505071 L356.682015,394.963616 Z M356.684083,469.993607 L388.646038,488.452151 L356.684083,506.910696 L324.722128,525.371309 L292.758105,506.910696 L260.79615,488.452151 L292.756037,469.993607 L324.72006,451.535062 L356.684083,469.993607 Z M356.686152,545.025667 L388.648107,563.484211 L356.686152,581.942756 L324.724197,600.399232 L292.760173,581.942756 L260.798218,563.484211 L292.760173,545.025667 L324.722128,526.565053 L356.686152,545.025667 Z M357.720318,544.425691 L325.756295,525.967147 L357.71825,507.510671 L389.682273,489.050058 L421.646297,507.510671 L453.608252,525.967147 L421.646297,544.425691 L389.684342,562.884236 L357.720318,544.425691 Z M422.680463,545.025667 L454.642418,526.565053 L486.606442,545.025667 L518.570465,563.48628 L486.60851,581.944825 L454.646555,600.403369 L422.680463,581.942756 L390.718508,563.484211 L422.680463,545.025667 Z M487.642677,544.42776 L455.680722,525.967147 L487.642677,507.510671 L519.604632,489.050058 L551.568655,507.510671 L583.53061,525.971285 L551.568655,544.429829 L519.6067,562.888374 L487.642677,544.42776 Z M552.602822,545.027735 L584.566845,526.569191 L616.530868,545.027735 L648.492823,563.48628 L616.530868,581.944825 L584.568913,600.403369 L552.60489,581.944825 L520.642935,563.48628 L552.602822,545.027735 Z M617.565035,544.429829 L585.60308,525.971285 L617.562967,507.51274 L649.52699,489.054195 L681.488945,507.51274 L713.4509,525.971285 L681.491013,544.429829 L649.529058,562.888374 L617.565035,544.429829 Z M682.52518,545.027735 L714.487135,526.569191 L746.451158,545.027735 L778.413113,563.48628 L746.451158,581.946894 L714.489203,600.405438 L682.52518,581.944825 L650.563225,563.48628 L682.52518,545.027735 Z M747.487393,544.429829 L715.525438,525.971285 L747.485325,507.51274 L779.449348,489.054195 L811.413372,507.51274 L843.375327,525.971285 L811.413372,544.431898 L779.451417,562.890443 L747.487393,544.429829 Z M812.447538,545.027735 L844.411562,526.57126 L876.375585,545.027735 L908.33754,563.48628 L876.375585,581.946894 L844.41363,600.405438 L812.449607,581.946894 L780.485583,563.48628 L812.447538,545.027735 Z M877.409752,544.431898 L845.445728,525.971285 L877.407683,507.51274 L909.371707,489.054195 L941.333662,507.51274 L973.295617,525.971285 L941.33573,544.431898 L909.373775,562.890443 L877.409752,544.431898 Z M877.407683,469.399838 L845.44366,450.941294 L877.405615,432.482749 L909.369638,414.024204 L941.331593,432.482749 L973.293548,450.943362 L941.333662,469.399838 L909.371707,487.858383 L877.407683,469.399838 Z M877.405615,394.369847 L845.441592,375.913371 L877.403547,357.454827 L909.36757,338.996282 L941.329525,357.454827 L973.29148,375.913371 L941.331593,394.369847 L909.369638,412.828392 L877.405615,394.369847 Z M877.403547,319.339856 L845.439523,300.881312 L877.401478,282.422767 L909.365502,263.964222 L941.329525,282.422767 L973.29148,300.881312 L941.329525,319.339856 L909.36757,337.798401 L877.403547,319.339856 Z M876.367312,281.824861 L844.405357,300.283405 L812.441333,281.824861 L780.47731,263.366316 L812.439265,244.907772 L844.403288,226.449227 L876.367312,244.907772 L908.329267,263.368385 L876.367312,281.824861 Z M811.407167,282.420698 L843.369122,300.881312 L811.407167,319.339856 L779.445212,337.798401 L747.481188,319.339856 L715.521302,300.881312 L747.481188,282.422767 L779.443143,263.964222 L811.407167,282.420698 Z M746.447022,281.822792 L714.485067,300.279268 L682.521043,281.822792 L650.55702,263.364247 L682.518975,244.905703 L714.482998,226.447158 L746.444953,244.905703 L778.406908,263.364247 L746.447022,281.822792 Z M681.484808,282.420698 L713.446763,300.879243 L681.484808,319.337787 L649.522853,337.794263 L617.55883,319.337787 L585.594807,300.879243 L617.556762,282.420698 L649.520785,263.962154 L681.484808,282.420698 Z M616.522595,281.822792 L584.56064,300.279268 L552.596617,281.820723 L520.634662,263.362178 L552.594548,244.903634 L584.558572,226.445089 L616.522595,244.903634 L648.48455,263.364247 L616.522595,281.822792 Z M551.56245,282.418629 L583.524405,300.877174 L551.564518,319.335719 L519.602563,337.792194 L487.636472,319.33365 L455.674517,300.875105 L487.636472,282.41656 L519.598427,263.960085 L551.56245,282.418629 Z M486.602305,281.820723 L454.64035,300.277199 L422.676327,281.820723 L390.712303,263.362178 L422.674258,244.903634 L454.638282,226.445089 L486.602305,244.903634 L518.56426,263.362178 L486.602305,281.820723 Z M421.640092,282.418629 L453.602047,300.877174 L421.640092,319.335719 L389.678137,337.794263 L357.714113,319.335719 L325.752158,300.877174 L357.714113,282.418629 L389.676068,263.962154 L421.640092,282.418629 Z M356.679947,281.820723 L324.715923,300.277199 L292.7519,281.818654 L260.789945,263.36011 L292.7519,244.901565 L324.713855,226.445089 L356.677878,244.903634 L388.639833,263.362178 L356.679947,281.820723 Z M291.717733,282.41656 L323.679688,300.875105 L291.719802,319.33365 L259.755778,337.792194 L227.793823,319.331581 L195.831868,300.873036 L227.791755,282.41656 L259.75371,263.958016 L291.717733,282.41656 Z M291.719802,357.44862 L323.683825,375.905096 L291.72187,394.363641 L259.759915,412.820116 L227.793823,394.363641 L195.831868,375.905096 L227.793823,357.44862 L259.755778,338.990076 L291.719802,357.44862 Z M291.72187,432.478611 L323.683825,450.937156 L291.72187,469.3957 L259.759915,487.854245 L227.79796,469.393632 L195.836005,450.935087 L227.795892,432.476542 L259.759915,414.020067 L291.72187,432.478611 Z M291.723938,507.508602 L323.685893,525.967147 L291.726007,544.425691 L259.761983,562.884236 L227.79796,544.425691 L195.836005,525.967147 L227.79796,507.508602 L259.759915,489.050058 L291.723938,507.508602 Z M291.726007,582.538593 L323.687962,600.999207 L291.726007,619.455682 L259.764052,637.914227 L227.800028,619.455682 L195.838073,600.999207 L227.800028,582.538593 L259.761983,564.080049 L291.726007,582.538593 Z M292.760173,620.053589 L324.724197,601.597113 L356.68822,620.055658 L388.650175,638.516271 L356.68822,656.974816 L324.726265,675.43336 L292.762242,656.972747 L260.800287,638.514202 L292.760173,620.053589 Z M357.722387,619.457751 L325.760432,600.999207 L357.720318,582.538593 L389.684342,564.080049 L421.646297,582.540662 L453.608252,601.001276 L421.648365,619.45982 L389.68641,637.918365 L357.722387,619.457751 Z M422.682532,620.057726 L454.646555,601.599182 L486.60851,620.057726 L518.570465,638.516271 L486.60851,656.974816 L454.646555,675.43336 L422.6846,656.974816 L390.722645,638.516271 L422.682532,620.057726 Z M487.644745,619.45982 L455.68279,601.001276 L487.644745,582.542731 L519.6067,564.084186 L551.570723,582.542731 L583.532678,601.001276 L551.570723,619.45982 L519.608768,637.918365 L487.644745,619.45982 Z M552.60489,620.057726 L584.568913,601.599182 L616.532937,620.057726 L648.494892,638.516271 L616.532937,656.974816 L584.570982,675.43336 L552.606958,656.974816 L520.645003,638.516271 L552.60489,620.057726 Z M617.567103,619.45982 L585.60308,601.001276 L617.565035,582.542731 L649.529058,564.084186 L681.491013,582.542731 L713.452968,601.001276 L681.493082,619.45982 L649.531127,637.920434 L617.567103,619.45982 Z M682.527248,620.059795 L714.489203,601.601251 L746.453227,620.059795 L778.415182,638.516271 L746.453227,656.974816 L714.491272,675.43336 L682.527248,656.974816 L650.567362,638.516271 L682.527248,620.059795 Z M747.487393,619.45982 L715.525438,601.001276 L747.485325,582.5448 L779.449348,564.086255 L811.413372,582.5448 L843.375327,601.001276 L811.413372,619.45982 L779.451417,637.920434 L747.487393,619.45982 Z M812.449607,620.059795 L844.41363,601.601251 L876.377653,620.059795 L908.339608,638.520409 L876.377653,656.978953 L844.415698,675.437498 L812.451675,656.976885 L780.487652,638.516271 L812.449607,620.059795 Z M877.41182,619.461889 L845.449865,601.001276 L877.409752,582.5448 L909.373775,564.086255 L941.33573,582.5448 L973.297685,601.005413 L941.337798,619.463958 L909.375843,637.922503 L877.41182,619.461889 Z M942.371965,620.061864 L974.33392,601.60332 L1006.29794,620.061864 L1038.2599,638.520409 L1006.29794,656.978953 L974.335988,675.437498 L942.371965,656.978953 L910.41001,638.520409 L942.371965,620.061864 Z M942.369897,581.946894 L910.41001,563.48628 L942.369897,545.027735 L974.331852,526.57126 L1006.29587,545.029804 L1038.25783,563.490418 L1006.29587,581.948962 L974.33392,600.407507 L942.369897,581.946894 Z M942.367828,506.916903 L910.405873,488.456289 L942.367828,469.997744 L974.329783,451.541269 L1006.29381,469.997744 L1038.25576,488.456289 L1006.29381,506.916903 L974.331852,525.373378 L942.367828,506.916903 Z M942.36576,431.886912 L910.405873,413.428367 L942.36576,394.969822 L974.327715,376.511278 L1006.29174,394.969822 L1038.25369,413.430436 L1006.29174,431.886912 L974.329783,450.345456 L942.36576,431.886912 Z M942.363692,356.854852 L910.401737,338.398376 L942.363692,319.939831 L974.327715,301.481287 L1006.28967,319.939831 L1038.25162,338.398376 L1006.28967,356.854852 L974.327715,375.313396 L942.363692,356.854852 Z M942.363692,281.824861 L910.401737,263.366316 L942.361623,244.907772 L974.325647,226.449227 L1006.2876,244.907772 L1038.24956,263.366316 L1006.28967,281.824861 L974.327715,300.283405 L942.363692,281.824861 Z M942.361623,206.79487 L910.3976,188.336325 L942.359555,169.877781 L974.323578,151.419236 L1006.2876,169.877781 L1038.24749,188.338394 L1006.2876,206.79487 L974.325647,225.253414 L942.361623,206.79487 Z M941.327457,207.392776 L973.289412,225.851321 L941.327457,244.309865 L909.365502,262.76841 L877.401478,244.309865 L845.439523,225.851321 L877.39941,207.392776 L909.363433,188.934231 L941.327457,207.392776 Z M876.365243,206.792801 L844.403288,225.251346 L812.439265,206.792801 L780.47731,188.336325 L812.437197,169.877781 L844.40122,151.419236 L876.365243,169.877781 L908.327198,188.336325 L876.365243,206.792801 Z M811.405098,207.392776 L843.367053,225.851321 L811.405098,244.307796 L779.443143,262.766341 L747.47912,244.307796 L715.517165,225.851321 L747.47912,207.392776 L779.441075,188.934231 L811.405098,207.392776 Z M746.444953,206.792801 L714.482998,225.251346 L682.518975,206.792801 L650.55702,188.334256 L682.516907,169.875712 L714.48093,151.417167 L746.442885,169.875712 L778.40484,188.336325 L746.444953,206.792801 Z M681.48274,207.390707 L713.444695,225.851321 L681.48274,244.307796 L649.520785,262.766341 L617.556762,244.307796 L585.594807,225.849252 L617.554693,207.392776 L649.518717,188.934231 L681.48274,207.390707 Z M616.520527,206.790732 L584.558572,225.249277 L552.594548,206.790732 L520.632593,188.334256 L552.594548,169.875712 L584.556503,151.417167 L616.520527,169.875712 L648.482482,188.334256 L616.520527,206.790732 Z M551.560382,207.390707 L583.522337,225.847183 L551.560382,244.305728 L519.598427,262.762203 L487.636472,244.305728 L455.674517,225.847183 L487.634403,207.390707 L519.596358,188.932163 L551.560382,207.390707 Z M486.600237,206.790732 L454.638282,225.249277 L422.674258,206.790732 L390.712303,188.332187 L422.674258,169.873643 L454.636213,151.415098 L486.598168,169.873643 L518.560123,188.334256 L486.600237,206.790732 Z M421.638023,207.388638 L453.599978,225.847183 L421.638023,244.305728 L389.676068,262.762203 L357.712045,244.303659 L325.75009,225.845114 L357.709977,207.388638 L389.674,188.930094 L421.638023,207.388638 Z M356.67581,206.790732 L324.713855,225.247208 L292.749832,206.790732 L260.787877,188.332187 L292.749832,169.873643 L324.713855,151.415098 L356.67581,169.873643 L388.637765,188.332187 L356.67581,206.790732 Z M291.715665,207.388638 L323.679688,225.845114 L291.717733,244.303659 L259.75371,262.762203 L227.789687,244.303659 L195.827732,225.845114 L227.789687,207.388638 L259.751642,188.930094 L291.715665,207.388638 Z M226.75552,206.790732 L194.793565,225.247208 L162.829542,206.788663 L130.865518,188.330119 L162.827473,169.871574 L194.791497,151.415098 L226.75552,169.873643 L258.717475,188.332187 L226.75552,206.790732 Z M226.75552,244.901565 L258.717475,263.36011 L226.757588,281.818654 L194.795633,300.277199 L162.83161,281.818654 L130.869655,263.36011 L162.83161,244.901565 L194.793565,226.445089 L226.75552,244.901565 Z M226.759657,319.931556 L258.721612,338.3901 L226.759657,356.848645 L194.797702,375.30719 L162.833678,356.848645 L130.869655,338.3901 L162.83161,319.933625 L194.795633,301.47508 L226.759657,319.931556 Z M226.759657,394.963616 L258.721612,413.420091 L226.761725,431.878636 L194.79977,450.337181 L162.835747,431.878636 L130.873792,413.420091 L162.835747,394.963616 L194.797702,376.505071 L226.759657,394.963616 Z M226.763793,469.991538 L258.725748,488.452151 L226.763793,506.910696 L194.79977,525.369241 L162.835747,506.908627 L130.873792,488.450082 L162.835747,469.989469 L194.79977,451.532993 L226.763793,469.991538 Z M226.763793,545.023598 L258.725748,563.484211 L226.765862,581.942756 L194.801838,600.399232 L162.839883,581.940687 L130.877928,563.482142 L162.837815,545.023598 L194.79977,526.565053 L226.763793,545.023598 Z M226.765862,620.053589 L258.729885,638.514202 L226.76793,656.972747 L194.805975,675.429223 L162.839883,656.972747 L130.877928,638.514202 L162.839883,620.053589 L194.801838,601.597113 L226.765862,620.053589 Z M226.76793,695.08358 L258.729885,713.544193 L226.769998,732.002738 L194.805975,750.461282 L162.84402,732.000669 L130.882065,713.540055 L162.841952,695.081511 L194.805975,676.625035 L226.76793,695.08358 Z M227.802097,694.485673 L195.840142,676.02506 L227.802097,657.566515 L259.764052,639.107971 L291.728075,657.568584 L323.69003,676.029198 L291.730143,694.487742 L259.768188,712.946287 L227.802097,694.485673 Z M292.76431,695.085649 L324.726265,676.627104 L356.68822,695.085649 L388.650175,713.544193 L356.690288,732.002738 L324.728333,750.461282 L292.76431,732.002738 L260.802355,713.544193 L292.76431,695.085649 Z M357.722387,694.487742 L325.760432,676.029198 L357.722387,657.570653 L389.68641,639.112108 L421.650433,657.570653 L453.612388,676.029198 L421.650433,694.487742 L389.68641,712.946287 L357.722387,694.487742 Z M422.6846,695.085649 L454.646555,676.627104 L486.610578,695.085649 L518.572533,713.546262 L486.612647,732.002738 L454.648623,750.461282 L422.6846,732.002738 L390.722645,713.544193 L422.6846,695.085649 Z M487.646813,694.487742 L455.684858,676.029198 L487.644745,657.570653 L519.608768,639.112108 L551.572792,657.570653 L583.534747,676.029198 L551.572792,694.487742 L519.610837,712.946287 L487.646813,694.487742 Z M552.606958,695.085649 L584.570982,676.627104 L616.535005,695.085649 L648.49696,713.546262 L616.535005,732.002738 L584.57305,750.461282 L552.609027,732.002738 L520.645003,713.546262 L552.606958,695.085649 Z M617.569172,694.487742 L585.607217,676.029198 L617.567103,657.572722 L649.531127,639.112108 L681.493082,657.572722 L713.455037,676.029198 L681.49515,694.487742 L649.533195,712.946287 L617.569172,694.487742 Z M682.529317,695.085649 L714.491272,676.627104 L746.455295,695.087717 L778.41725,713.548331 L746.455295,732.006876 L714.49334,750.46542 L682.529317,732.004807 L650.567362,713.546262 L682.529317,695.085649 Z M747.489462,694.489811 L715.527507,676.029198 L747.487393,657.572722 L779.451417,639.112108 L811.41544,657.572722 L843.377395,676.033335 L811.41544,694.49188 L779.453485,712.950425 L747.489462,694.489811 Z M812.451675,695.089786 L844.415698,676.631242 L876.377653,695.089786 L908.339608,713.548331 L876.379722,732.006876 L844.417767,750.46542 L812.453743,732.006876 L780.48972,713.548331 L812.451675,695.089786 Z M877.41182,694.49188 L845.449865,676.033335 L877.41182,657.574791 L909.375843,639.116246 L941.337798,657.574791 L973.299753,676.033335 L941.337798,694.49188 L909.375843,712.950425 L877.41182,694.49188 Z M942.371965,695.089786 L974.335988,676.631242 L1006.30001,695.089786 L1038.26197,713.548331 L1006.30001,732.006876 L974.338057,750.467489 L942.374033,732.006876 L910.41001,713.548331 L942.371965,695.089786 Z M1007.33418,694.49188 L975.370155,676.033335 L1007.33211,657.574791 L1039.29613,639.116246 L1071.26016,657.574791 L1103.22211,676.033335 L1071.26016,694.493949 L1039.2982,712.950425 L1007.33418,694.49188 Z M1007.33211,619.463958 L975.368087,601.005413 L1007.33004,582.546869 L1039.29407,564.088324 L1071.25809,582.546869 L1103.22004,601.005413 L1071.25809,619.463958 L1039.29613,637.922503 L1007.33211,619.463958 Z M1007.33004,544.431898 L975.366018,525.971285 L1007.32797,507.51274 L1039.292,489.054195 L1071.25602,507.514809 L1103.21797,525.975422 L1071.25602,544.433967 L1039.29406,562.892512 L1007.33004,544.431898 Z M1007.32797,469.399838 L975.366018,450.943362 L1007.3259,432.484818 L1039.28993,414.026273 L1071.25395,432.484818 L1103.21591,450.943362 L1071.25395,469.399838 L1039.292,487.858383 L1007.32797,469.399838 Z M1007.3259,394.371916 L975.36395,375.913371 L1007.32384,357.454827 L1039.28786,338.996282 L1071.25188,357.454827 L1103.21384,375.913371 L1071.25188,394.371916 L1039.28993,412.830461 L1007.3259,394.371916 Z M1007.32384,319.341925 L975.36395,300.883381 L1007.32384,282.426905 L1039.28579,263.96836 L1071.24981,282.426905 L1103.21177,300.883381 L1071.24981,319.341925 L1039.28786,337.80047 L1007.32384,319.341925 Z M1007.32177,244.309865 L975.361882,225.851321 L1007.32177,207.394845 L1039.28372,188.9363 L1071.24775,207.394845 L1103.2097,225.85339 L1071.24775,244.311934 L1039.28579,262.770479 L1007.32177,244.309865 Z M1007.32177,169.279874 L975.359813,150.82133 L1007.3197,132.364854 L1039.28165,113.906309 L1071.24568,132.364854 L1103.20763,150.823399 L1071.24568,169.281943 L1039.28372,187.740488 L1007.32177,169.279874 Z M1006.2876,131.764879 L974.325647,150.223423 L942.361623,131.764879 L910.3976,113.306334 L942.359555,94.8498584 L974.323578,76.3913138 L1006.28553,94.8498584 L1038.24749,113.306334 L1006.2876,131.764879 Z M941.325388,132.362785 L973.287343,150.819261 L941.325388,169.277805 L909.363433,187.738419 L877.39941,169.279874 L845.435387,150.82133 L877.397342,132.364854 L909.361365,113.906309 L941.325388,132.362785 Z M876.363175,131.764879 L844.40122,150.223423 L812.437197,131.76281 L780.473173,113.304265 L812.435128,94.8477896 L844.399152,76.3892449 L876.363175,94.8477896 L908.32513,113.306334 L876.363175,131.764879 Z M811.40303,132.360716 L843.364985,150.819261 L811.40303,169.277805 L779.441075,187.73635 L747.477052,169.275737 L715.515097,150.817192 L747.477052,132.358647 L779.439007,113.900103 L811.40303,132.360716 Z M746.442885,131.76281 L714.48093,150.221355 L682.516907,131.76281 L650.552883,113.304265 L682.514838,94.8477896 L714.478862,76.3892449 L746.440817,94.8477896 L778.402772,113.304265 L746.442885,131.76281 Z M681.480672,132.360716 L713.442627,150.819261 L681.480672,169.275737 L649.518717,187.734281 L617.554693,169.275737 L585.592738,150.819261 L617.552625,132.360716 L649.516648,113.902172 L681.480672,132.360716 Z M616.518458,131.76281 L584.556503,150.221355 L552.59248,131.76281 L520.630525,113.304265 L552.59248,94.8457207 L584.556503,76.3871761 L616.518458,94.8457207 L648.480413,113.304265 L616.518458,131.76281 Z M551.558313,132.358647 L583.522337,150.819261 L551.560382,169.275737 L519.596358,187.734281 L487.632335,169.273668 L455.67038,150.815123 L487.632335,132.356578 L519.59429,113.898034 L551.558313,132.358647 Z M486.598168,131.760741 L454.636213,150.219286 L422.67219,131.760741 L390.708167,113.304265 L422.670122,94.8457207 L454.634145,76.3871761 L486.598168,94.8457207 L518.560123,113.304265 L486.598168,131.760741 Z M421.638023,132.358647 L453.599978,150.817192 L421.640092,169.275737 L389.674,187.734281 L357.709977,169.275737 L325.748022,150.817192 L357.709977,132.358647 L389.671932,113.900103 L421.638023,132.358647 Z M356.67581,131.760741 L324.713855,150.219286 L292.747763,131.760741 L260.785808,113.302196 L292.747763,94.8436518 L324.709718,76.3851072 L356.673742,94.8436518 L388.635697,113.304265 L356.67581,131.760741 Z M291.713597,132.356578 L323.67762,150.815123 L291.715665,169.273668 L259.751642,187.732212 L227.789687,169.271599 L195.827732,150.813054 L227.787618,132.35451 L259.751642,113.898034 L291.713597,132.356578 Z M226.753452,131.758672 L194.791497,150.215148 L162.827473,131.758672 L130.865518,113.300128 L162.827473,94.8415829 L194.789428,76.3830383 L226.751383,94.8415829 L258.713338,113.300128 L226.753452,131.758672 Z M161.793307,132.356578 L193.755262,150.815123 L161.793307,169.273668 L129.831352,187.732212 L97.8673283,169.273668 L65.9053733,150.815123 L97.8673283,132.356578 L129.831352,113.900103 L161.793307,132.356578 Z M161.795375,207.386569 L193.75733,225.845114 L161.797443,244.303659 L129.83342,262.762203 L97.8693967,244.30159 L65.9074417,225.843045 L97.8693967,207.386569 L129.831352,188.928025 L161.795375,207.386569 Z M161.797443,282.41656 L193.759398,300.873036 L161.797443,319.331581 L129.835488,337.790125 L97.871465,319.331581 L65.90951,300.873036 L97.8693967,282.41656 L129.83342,263.958016 L161.797443,282.41656 Z M161.799512,357.446551 L193.761467,375.905096 L161.80158,394.363641 L129.837557,412.820116 L97.8735333,394.361572 L65.9115783,375.903027 L97.8735333,357.444482 L129.835488,338.985938 L161.799512,357.446551 Z M161.80158,432.476542 L193.763535,450.935087 L161.80158,469.391563 L129.839625,487.850107 L97.8756017,469.391563 L65.9136467,450.935087 L97.8735333,432.476542 L129.837557,414.020067 L161.80158,432.476542 Z M161.80158,507.506533 L193.763535,525.967147 L161.803648,544.425691 L129.841693,562.884236 L97.87767,544.423623 L65.915715,525.963009 L97.87767,507.504464 L129.839625,489.04592 L161.80158,507.506533 Z M161.803648,582.538593 L193.765603,600.999207 L161.803648,619.455682 L129.841693,637.914227 L97.87767,619.455682 L65.9136467,600.997138 L97.8756017,582.538593 L129.839625,564.080049 L161.803648,582.538593 Z M161.803648,657.568584 L193.765603,676.027129 L161.805717,694.487742 L129.843762,712.944218 L97.8797383,694.487742 L65.9177833,676.027129 L97.87767,657.568584 L129.841693,639.11004 L161.803648,657.568584 Z M161.807785,732.598575 L193.76974,751.059189 L161.807785,769.517733 L129.84583,787.976278 L97.8818067,769.515664 L65.9177833,751.055051 L97.8797383,732.596506 L129.843762,714.14003 L161.807785,732.598575 Z M162.841952,770.115639 L194.803907,751.657095 L226.76793,770.115639 L258.729885,788.574184 L226.769998,807.032729 L194.808043,825.491273 L162.841952,807.032729 L130.879997,788.574184 L162.841952,770.115639 Z M227.804165,769.517733 L195.84221,751.059189 L227.804165,732.600644 L259.768188,714.142099 L291.730143,732.600644 L323.692098,751.059189 L291.730143,769.517733 L259.768188,787.976278 L227.804165,769.517733 Z M292.76431,770.115639 L324.728333,751.657095 L356.692357,770.115639 L388.654312,788.576253 L356.692357,807.034798 L324.730402,825.491273 L292.766378,807.032729 L260.802355,788.574184 L292.76431,770.115639 Z M357.726523,769.517733 L325.764568,751.059189 L357.724455,732.600644 L389.68641,714.142099 L421.650433,732.600644 L453.612388,751.061258 L421.652502,769.517733 L389.688478,787.976278 L357.726523,769.517733 Z M422.686668,770.115639 L454.648623,751.657095 L486.612647,770.115639 L518.574602,788.576253 L486.612647,807.034798 L454.650692,825.491273 L422.686668,807.034798 L390.724713,788.576253 L422.686668,770.115639 Z M487.648882,769.517733 L455.686927,751.061258 L487.648882,732.600644 L519.610837,714.142099 L551.57486,732.600644 L583.536815,751.061258 L551.57486,769.517733 L519.612905,787.976278 L487.648882,769.517733 Z M552.609027,770.115639 L584.57305,751.657095 L616.537073,770.117708 L648.499028,788.578322 L616.539142,807.036867 L584.575118,825.495411 L552.611095,807.034798 L520.64914,788.576253 L552.609027,770.115639 Z M617.57124,769.519802 L585.607217,751.061258 L617.569172,732.600644 L649.533195,714.142099 L681.49515,732.602713 L713.457105,751.063326 L681.497218,769.521871 L649.535263,787.980416 L617.57124,769.519802 Z M682.531385,770.119777 L714.49334,751.661233 L746.457363,770.119777 L778.419318,788.578322 L746.457363,807.036867 L714.495408,825.495411 L682.531385,807.036867 L650.56943,788.578322 L682.531385,770.119777 Z M747.49153,769.521871 L715.529575,751.063326 L747.489462,732.604782 L779.453485,714.146237 L811.417508,732.604782 L843.379463,751.063326 L811.417508,769.521871 L779.455553,787.982485 L747.49153,769.521871 Z M812.453743,770.119777 L844.417767,751.661233 L876.379722,770.119777 L908.341677,788.578322 L876.38179,807.036867 L844.419835,825.495411 L812.455812,807.036867 L780.493857,788.578322 L812.453743,770.119777 Z M877.413888,769.521871 L845.451933,751.063326 L877.413888,732.604782 L909.375843,714.146237 L941.339867,732.604782 L973.301822,751.063326 L941.339867,769.52394 L909.377912,787.982485 L877.413888,769.521871 Z M942.374033,770.121846 L974.338057,751.661233 L1006.30208,770.121846 L1038.26403,788.58246 L1006.30208,807.041004 L974.340125,825.499549 L942.376102,807.038935 L910.412078,788.578322 L942.374033,770.121846 Z M1007.33625,769.52394 L975.374292,751.063326 L1007.33418,732.604782 L1039.2982,714.148306 L1071.26222,732.606851 L1103.22418,751.067464 L1071.26222,769.526009 L1039.30027,787.984553 L1007.33625,769.52394 Z M1072.29846,770.123915 L1104.26248,751.66537 L1136.22444,770.123915 L1168.18639,788.58246 L1136.22651,807.041004 L1104.26455,825.499549 L1072.30053,807.041004 L1040.3365,788.58246 L1072.29846,770.123915 Z M1072.29846,732.008944 L1040.3365,713.548331 L1072.29639,695.089786 L1104.26041,676.633311 L1136.22237,695.091855 L1168.18432,713.552469 L1136.22444,732.011013 L1104.26248,750.469558 L1072.29846,732.008944 Z M1072.29639,656.976885 L1040.33237,638.51834 L1072.29432,620.059795 L1104.25835,601.601251 L1136.2203,620.059795 L1168.18226,638.51834 L1136.22237,656.978953 L1104.26041,675.435429 L1072.29639,656.976885 Z M1072.29432,581.948962 L1040.33237,563.490418 L1072.29225,545.031873 L1104.25628,526.573329 L1136.21823,545.031873 L1168.18019,563.490418 L1136.2203,581.948962 L1104.25835,600.407507 L1072.29432,581.948962 Z M1072.29225,506.916903 L1040.32823,488.456289 L1072.29019,469.997744 L1104.25421,451.541269 L1136.21823,469.999813 L1168.18019,488.460427 L1136.21823,506.918971 L1104.25628,525.377516 L1072.29225,506.916903 Z M1072.29019,431.886912 L1040.32823,413.430436 L1072.28812,394.971891 L1104.25214,376.513347 L1136.21616,394.971891 L1168.17812,413.430436 L1136.21616,431.886912 L1104.25421,450.345456 L1072.29019,431.886912 Z M1072.28812,356.856921 L1040.32409,338.398376 L1072.28605,319.939831 L1104.25007,301.481287 L1136.2141,319.939831 L1168.17605,338.398376 L1136.2141,356.856921 L1104.25214,375.315465 L1072.28812,356.856921 Z M1072.28605,281.82693 L1040.32203,263.368385 L1072.28398,244.911909 L1104.248,226.453365 L1136.21203,244.911909 L1168.17398,263.368385 L1136.21203,281.82693 L1104.25007,300.285474 L1072.28605,281.82693 Z M1072.28398,206.796939 L1040.32203,188.338394 L1072.28191,169.879849 L1104.24594,151.421305 L1136.20996,169.879849 L1168.17191,188.340463 L1136.20996,206.799008 L1104.248,225.257552 L1072.28398,206.796939 Z M1072.28191,131.764879 L1040.31789,113.306334 L1072.27984,94.8498584 L1104.24387,76.3913138 L1136.20789,94.8498584 L1168.16985,113.308403 L1136.20789,131.766948 L1104.24594,150.225492 L1072.28191,131.764879 Z M1071.24568,57.3327941 L1103.20763,75.7913387 L1071.24568,94.2498833 L1039.28372,112.708428 L1007.3197,94.2498833 L975.357745,75.7913387 L1007.3197,57.3327941 L1039.28166,38.8763183 L1071.24568,57.3327941 Z M942.355418,19.8157297 L974.319442,1.35718508 L1006.2814,19.8157297 L1038.24335,38.2742743 L1006.28346,56.732819 L974.32151,75.1913636 L942.357487,56.7307501 L910.395532,38.2722055 L942.355418,19.8157297 Z M941.32332,57.3327941 L973.285275,75.7913387 L941.32332,94.2498833 L909.361365,112.708428 L877.397342,94.2478145 L845.435387,75.7892698 L877.395273,57.3327941 L909.359297,38.8742494 L941.32332,57.3327941 Z M812.435128,19.8157297 L844.397083,1.35718508 L876.361107,19.8157297 L908.323062,38.2742743 L876.361107,56.732819 L844.399152,75.1913636 L812.435128,56.732819 L780.473173,38.2742743 L812.435128,19.8157297 Z M811.400962,57.3327941 L843.362917,75.7892698 L811.400962,94.2478145 L779.439007,112.706359 L747.474983,94.2478145 L715.515097,75.7892698 L747.474983,57.3327941 L779.439007,38.8742494 L811.400962,57.3327941 Z M682.510702,19.8157297 L714.474725,1.35718508 L746.438748,19.8157297 L778.400703,38.2742743 L746.438748,56.732819 L714.476793,75.1913636 L682.51277,56.7307501 L650.550815,38.2722055 L682.510702,19.8157297 Z M681.478603,57.3307252 L713.440558,75.7892698 L681.478603,94.2478145 L649.516648,112.706359 L617.552625,94.2478145 L585.59067,75.7892698 L617.552625,57.3307252 L649.51458,38.8721806 L681.478603,57.3307252 Z M552.590412,19.8157297 L584.552367,1.35718508 L616.51639,19.8157297 L648.478345,38.2722055 L616.518458,56.7307501 L584.556503,75.1892947 L552.590412,56.7307501 L520.628457,38.2722055 L552.590412,19.8157297 Z M551.556245,57.3286563 L583.5182,75.7872009 L551.558313,94.2436767 L519.59429,112.702221 L487.632335,94.2436767 L455.67038,75.7872009 L487.630267,57.3286563 L519.59429,38.8701117 L551.556245,57.3286563 Z M422.670122,19.8136608 L454.632077,1.3551162 L486.594032,19.8136608 L518.555987,38.2722055 L486.5961,56.7307501 L454.634145,75.1892947 L422.670122,56.7307501 L390.708167,38.2722055 L422.670122,19.8136608 Z M421.635955,57.3286563 L453.59791,75.7892698 L421.635955,94.2457456 L389.674,112.70429 L357.709977,94.2457456 L325.748022,75.7872009 L357.707908,57.3286563 L389.671932,38.8701117 L421.635955,57.3286563 Z M292.745695,19.8136608 L324.70765,1.35304732 L356.671673,19.8115919 L388.633628,38.2701366 L356.671673,56.7266123 L324.709718,75.185157 L292.747763,56.7266123 L260.785808,38.2701366 L292.745695,19.8136608 Z M291.713597,57.3265874 L323.675552,75.7851321 L291.713597,94.2436767 L259.751642,112.700152 L227.78555,94.2436767 L195.823595,75.7851321 L227.78555,57.3265874 L259.749573,38.8680428 L291.713597,57.3265874 Z M162.823337,19.8095231 L194.78736,1.35097844 L226.751383,19.8095231 L258.713338,38.2701366 L226.751383,56.7266123 L194.789428,75.185157 L162.825405,56.7266123 L130.86345,38.2680677 L162.823337,19.8095231 Z M161.791238,57.3265874 L193.753193,75.7851321 L161.793307,94.2436767 L129.831352,112.700152 L97.86526,94.2416078 L65.903305,75.7830632 L97.86526,57.3245186 L129.827215,38.8680428 L161.791238,57.3265874 Z M32.9009783,56.7266123 L0.939023333,38.2659988 L32.9009783,19.8074542 L64.8629333,1.34890956 L96.8269567,19.8074542 L128.79098,38.2659988 L96.829025,56.7245434 L64.8650017,75.1810192 L32.9009783,56.7266123 Z M32.905115,131.756603 L0.94316,113.298059 L32.9030467,94.839514 L64.8650017,76.3830383 L96.829025,94.8415829 L128.79098,113.300128 L96.8310933,131.758672 L64.86707,150.215148 L32.905115,131.756603 Z M32.905115,206.788663 L0.94316,188.32805 L32.905115,169.869505 L64.86707,151.413029 L96.8310933,169.869505 L128.793048,188.32805 L96.8331617,206.786594 L64.8691383,225.245139 L32.905115,206.788663 Z M32.9071833,281.816585 L0.945228333,263.358041 L32.9071833,244.901565 L64.8691383,226.44302 L96.8331617,244.901565 L128.795117,263.36011 L96.8331617,281.818654 L64.8712067,300.277199 L32.9071833,281.816585 Z M32.9092517,356.848645 L0.947296667,338.3901 L32.9092517,319.933625 L64.8712067,301.47508 L96.83523,319.933625 L128.797185,338.3901 L96.8372983,356.848645 L64.873275,375.30719 L32.9092517,356.848645 Z M32.9133883,431.878636 L0.949365,413.420091 L32.91132,394.961547 L64.873275,376.503002 L96.8372983,394.961547 L128.799253,413.420091 L96.8372983,431.878636 L64.8753433,450.337181 L32.9133883,431.878636 Z M32.9133883,506.906558 L0.951433333,488.450082 L32.9133883,469.989469 L64.8753433,451.532993 L96.8393667,469.989469 L128.801322,488.450082 L96.841435,506.906558 L64.87948,525.365103 L32.9133883,506.906558 Z M32.9154567,581.940687 L0.953501667,563.482142 L32.9154567,545.021529 L64.87948,526.560915 L96.841435,545.021529 L128.80339,563.482142 L96.841435,581.940687 L64.87948,600.399232 L32.9154567,581.940687 Z M32.917525,656.968609 L0.95557,638.510064 L32.917525,620.05152 L64.87948,601.592975 L96.8435033,620.05152 L128.805458,638.512133 L96.8435033,656.970678 L64.8815483,675.427154 L32.917525,656.968609 Z M32.9195933,732.000669 L0.957638333,713.540055 L32.917525,695.081511 L64.8815483,676.625035 L96.8455717,695.081511 L128.807527,713.540055 L96.8455717,732.000669 L64.8836167,750.459214 L32.9195933,732.000669 Z M32.9216617,807.03066 L0.959706667,788.572115 L32.9216617,770.113571 L64.8836167,751.655026 L96.84764,770.113571 L128.809595,788.574184 L96.84764,807.032729 L64.885685,825.491273 L32.9216617,807.03066 Z M96.8497083,882.060651 L64.8877533,900.519195 L32.92373,882.060651 L0.961775,863.602106 L32.9216617,845.143562 L64.885685,826.685017 L96.8497083,845.143562 L128.811663,863.602106 L96.8497083,882.060651 Z M97.883875,844.545655 L65.92192,826.087111 L97.8818067,807.628566 L129.84583,789.170021 L161.807785,807.628566 L193.76974,826.087111 L161.809853,844.545655 L129.84583,863.0042 L97.883875,844.545655 Z M226.772067,882.060651 L194.810112,900.521264 L162.846088,882.060651 L130.884133,863.602106 L162.846088,845.143562 L194.810112,826.685017 L226.772067,845.143562 L258.734022,863.602106 L226.772067,882.060651 Z M227.806233,844.545655 L195.844278,826.087111 L227.806233,807.628566 L259.768188,789.170021 L291.732212,807.628566 L323.694167,826.087111 L291.732212,844.547724 L259.770257,863.0042 L227.806233,844.545655 Z M356.694425,882.060651 L324.73247,900.521264 L292.768447,882.060651 L260.806492,863.602106 L292.766378,845.143562 L324.730402,826.687086 L356.692357,845.143562 L388.65638,863.602106 L356.694425,882.060651 Z M357.726523,844.547724 L325.764568,826.087111 L357.726523,807.628566 L389.688478,789.170021 L421.652502,807.628566 L453.616525,826.087111 L421.65457,844.547724 L389.692615,863.0042 L357.726523,844.547724 Z M486.618852,882.064789 L454.656897,900.523333 L422.690805,882.06272 L390.72885,863.602106 L422.690805,845.143562 L454.65276,826.687086 L486.616783,845.14563 L518.578738,863.606244 L486.618852,882.064789 Z M487.65095,844.547724 L455.688995,826.087111 L487.648882,807.628566 L519.612905,789.170021 L551.576928,807.630635 L583.538883,826.091248 L551.576928,844.549793 L519.614973,863.008338 L487.65095,844.547724 Z M616.539142,882.064789 L584.575118,900.523333 L552.611095,882.064789 L520.64914,863.606244 L552.611095,845.147699 L584.575118,826.689155 L616.539142,845.147699 L648.499028,863.608313 L616.539142,882.064789 Z M617.573308,844.549793 L585.611353,826.091248 L617.573308,807.632704 L649.535263,789.174159 L681.497218,807.632704 L713.459173,826.091248 L681.497218,844.549793 L649.535263,863.008338 L617.573308,844.549793 Z M746.459432,882.064789 L714.497477,900.523333 L682.533453,882.064789 L650.56943,863.608313 L682.531385,845.147699 L714.495408,826.689155 L746.459432,845.147699 L778.421387,863.608313 L746.459432,882.064789 Z M747.493598,844.549793 L715.531643,826.091248 L747.49153,807.634773 L779.455553,789.176228 L811.419577,807.634773 L843.381532,826.091248 L811.419577,844.549793 L779.457622,863.008338 L747.493598,844.549793 Z M876.383858,882.068926 L844.421903,900.527471 L812.45788,882.066857 L780.493857,863.608313 L812.455812,845.147699 L844.419835,826.689155 L876.38179,845.149768 L908.343745,863.610382 L876.383858,882.068926 Z M877.415957,844.551862 L845.45607,826.091248 L877.415957,807.634773 L909.377912,789.176228 L941.341935,807.634773 L973.30389,826.095386 L941.341935,844.553931 L909.37998,863.012476 L877.415957,844.551862 Z M1006.30415,882.068926 L974.342193,900.527471 L942.37817,882.068926 L910.414147,863.610382 L942.376102,845.151837 L974.340125,826.693292 L1006.30415,845.151837 L1038.2661,863.610382 L1006.30415,882.068926 Z M1007.33831,844.553931 L975.374292,826.095386 L1007.33625,807.636842 L1039.30027,789.178297 L1071.26429,807.636842 L1103.22625,826.095386 L1071.26429,844.553931 L1039.30234,863.012476 L1007.33831,844.553931 Z M1136.22651,882.068926 L1104.26455,900.52954 L1072.30053,882.068926 L1040.34064,863.610382 L1072.30053,845.151837 L1104.26455,826.693292 L1136.22651,845.151837 L1168.18846,863.610382 L1136.22651,882.068926 Z M1201.18665,807.63891 L1233.14861,826.097455 L1201.18665,844.558069 L1169.2247,863.014544 L1137.26067,844.556 L1105.30079,826.097455 L1137.26067,807.63891 L1169.22263,789.180366 L1201.18665,807.63891 Z M1201.18458,732.60892 L1233.14654,751.067464 L1201.18458,769.526009 L1169.22263,787.984553 L1137.2586,769.526009 L1105.29665,751.067464 L1137.2586,732.60892 L1169.22056,714.150375 L1201.18458,732.60892 Z M1201.18251,657.57686 L1233.14447,676.037473 L1201.18251,694.496018 L1169.22056,712.954562 L1137.25654,694.493949 L1105.29458,676.033335 L1137.25654,657.574791 L1169.21849,639.116246 L1201.18251,657.57686 Z M1201.18045,582.546869 L1233.1424,601.007482 L1201.18045,619.463958 L1169.21849,637.922503 L1137.25447,619.463958 L1105.29251,601.005413 L1137.25447,582.546869 L1169.21642,564.088324 L1201.18045,582.546869 Z M1201.17838,507.516878 L1233.14033,525.975422 L1201.17838,544.433967 L1169.21642,562.892512 L1137.2524,544.433967 L1105.29044,525.975422 L1137.2524,507.516878 L1169.21642,489.058333 L1201.17838,507.516878 Z M1201.17631,432.486887 L1233.13826,450.945431 L1201.17838,469.403976 L1169.21642,487.862521 L1137.2524,469.401907 L1105.29044,450.943362 L1137.25033,432.484818 L1169.21435,414.026273 L1201.17631,432.486887 Z M1201.17424,357.456896 L1233.1362,375.913371 L1201.17631,394.371916 L1169.21436,412.830461 L1137.25033,394.371916 L1105.28631,375.913371 L1137.24826,357.456896 L1169.21229,338.998351 L1201.17424,357.456896 Z M1201.17217,282.424836 L1233.13413,300.883381 L1201.17424,319.341925 L1169.21229,337.80047 L1137.24826,319.339856 L1105.28424,300.881312 L1137.24619,282.424836 L1169.21022,263.966291 L1201.17217,282.424836 Z M1201.17011,207.394845 L1233.13206,225.85339 L1201.17217,244.311934 L1169.21022,262.770479 L1137.2462,244.311934 L1105.28217,225.85339 L1137.24413,207.394845 L1169.20815,188.938369 L1201.17011,207.394845 Z M1201.16804,132.364854 L1233.12999,150.823399 L1201.1701,169.281943 L1169.20815,187.738419 L1137.24413,169.279874 L1105.28217,150.82133 L1137.24206,132.362785 L1169.20608,113.906309 L1201.16804,132.364854 Z M1201.16804,57.334863 L1233.12999,75.7934076 L1201.16804,94.2519522 L1169.20608,112.708428 L1137.24206,94.2498833 L1105.27803,75.7913387 L1137.23999,57.3327941 L1169.20401,38.8763183 L1201.16804,57.334863 Z" id="mesh"></path>
            </g>
        </g>
    </g>
</svg>