<?xml version="1.0" encoding="UTF-8"?>
<svg width="264px" height="130px" viewBox="0 0 264 130" version="1.1" xmlns="http://www.w3.org/2000/svg" xmlns:xlink="http://www.w3.org/1999/xlink">
    <!-- Generator: sketchtool 58 (101010) - https://sketch.com -->
    <title>752238B6-5D62-418E-9924-0049E450DE6A@2x</title>
    <desc>Created with sketchtool.</desc>
    <defs>
        <rect id="path-1" x="0" y="0" width="240" height="106" rx="8"></rect>
        <filter x="-7.9%" y="-16.0%" width="115.8%" height="135.8%" filterUnits="objectBoundingBox" id="filter-2">
            <feOffset dx="0" dy="2" in="SourceAlpha" result="shadowOffsetOuter1"></feOffset>
            <feGaussianBlur stdDeviation="6" in="shadowOffsetOuter1" result="shadowBlurOuter1"></feGaussianBlur>
            <feColorMatrix values="0 0 0 0 0   0 0 0 0 0   0 0 0 0 0  0 0 0 0.110467657 0" type="matrix" in="shadowBlurOuter1"></feColorMatrix>
        </filter>
    </defs>
    <g id="Changes" stroke="none" stroke-width="1" fill="none" fill-rule="evenodd">
        <g id="02_Dark-Mode" transform="translate(-432.000000, -272.000000)">
            <g id="Left-Text-and-Logo" transform="translate(278.000000, 282.000000)">
                <g id="Nadl-Logo" transform="translate(166.000000, 0.000000)">
                    <g id="Rectangle">
                        <use fill="black" fill-opacity="1" filter="url(#filter-2)" xlink:href="#path-1"></use>
                        <use fill="#FFFFFF" fill-rule="evenodd" xlink:href="#path-1"></use>
                    </g>
                    <path d="M75,71.9826641 C72.9007798,71.9826641 70.9230319,71.9826641 68.945562,71.9826641 C64.2014688,71.9826641 59.4587655,71.9637969 54.7163402,72 C53.8974442,72.0068817 53.3615203,71.7801938 52.8339356,71.1082965 C48.48567,65.5748593 44.0945972,60.0735245 39.715199,54.5637417 C39.4825392,54.2711594 39.2409843,53.983646 38.8048513,53.4514222 C38.8048513,59.7598223 38.8048513,65.8012656 38.8048513,71.9117009 C31.7903091,71.9117009 24.9381007,71.9117009 18,71.9117009 C18,52.9710129 18,34.077352 18,15.0918896 C18.3332846,15.067672 18.6576741,15.0223345 18.979006,15.0223345 C23.7228212,15.0178289 28.4658025,15.0375409 33.2087838,15 C33.9334484,14.9944561 34.3517914,15.2588783 34.7820871,15.8082797 C40.8187351,23.5111622 46.8762307,31.1971487 52.9312247,38.8856696 C53.2300411,39.2649846 53.5402543,39.6330356 54.0283674,40.2300273 C54.0283674,31.6924828 54.0283674,23.4156998 54.0283674,15.0797808 C61.0048279,15.0797808 67.9671119,15.0797808 75,15.0797808 C75,34.0404625 75,52.9366577 75,71.9826641 Z" id="Path" fill="#422873" fill-rule="nonzero"></path>
                    <path d="M127,72.8303697 C127,53.9141641 127,35.0394792 127,16.0944633 C127.288572,16.0633934 127.536864,16.0122693 127.785709,16.0133991 C133.6777,16.0269569 139.571899,15.9388313 145.462786,16.089944 C158.4543,16.4252165 169.510232,25.7055148 172.342703,38.5032087 C175.556717,53.0255648 166.65376,68.2854075 152.847845,71.8669202 C149.014479,72.8622869 145.076829,72.9783754 141.148007,72.99617 C136.591004,73.0182014 132.033174,72.9396792 127.474791,72.9009831 C127.333816,72.9009831 127.193944,72.8600273 127,72.8303697 Z M144.463821,56.1221045 C148.637625,55.9458534 151.894952,54.2655364 153.921574,50.6077613 C156.336637,46.2492185 156.491958,41.7565102 153.781703,37.4663212 C151.648591,34.0901523 148.324776,32.9402834 144.463821,32.8589367 C144.463821,40.6416655 144.463821,48.2896639 144.463821,56.1221045 Z" id="Shape" fill="#422874" fill-rule="nonzero"></path>
                    <path d="M200.409598,15.0233615 C200.409598,15.6671701 200.409598,16.1199056 200.409598,16.5732082 C200.409598,28.6045768 200.404866,40.636229 200.414052,52.6678812 C200.416278,54.6248213 200.127625,54.4581284 202.12064,54.4603963 C207.952435,54.4674836 213.783673,54.4629478 219.615746,54.4629478 C220.05471,54.4629478 220.493952,54.4629478 221,54.4629478 C221,60.3658026 221,66.133999 221,72 C207.070331,72 193.149012,72 179.08963,72 C179.068475,71.6192713 179.025887,71.2201156 179.025887,70.8198259 C179.022825,52.6588094 179.030619,34.496092 179,16.3362095 C179,15.2861579 179.27557,14.9933114 180.312717,15 C186.592105,15.0491592 192.871772,15.0244955 199.153943,15.0244955 C199.517752,15.0233615 199.885179,15.0233615 200.409598,15.0233615 Z" id="Path" fill="#422874" fill-rule="nonzero"></path>
                    <path d="M112.561911,64.3877314 C113.361413,65.5405641 114.093966,66.5980929 114.882634,67.7345632 C112.728034,69.4781652 110.425645,70.7969186 107.886295,71.6052794 C100.854121,73.8454951 94.0002929,73.5773811 87.6678913,69.4015202 C81.7741325,65.5147287 79.5886969,59.6851156 80.06262,52.6283212 C80.8690671,40.6220395 91.3787148,31.9545519 103.962123,33.1019304 C107.800178,33.4521435 111.349045,34.5478513 114.408711,37.051588 C121.820635,43.1128586 121.870916,55.0832578 114.515385,61.1654837 C112.15577,63.1146206 109.456131,63.9140825 106.468138,63.6367826 C104.621615,63.4656949 103.153454,62.7009673 102.716478,60.506107 C102.45757,60.7429315 102.260889,60.8950732 102.096155,61.0779304 C99.6812586,63.7567737 95.963768,64.4729882 92.7754823,62.8654526 C91.1964794,62.0697225 90.1708498,60.7613033 89.8241581,59.0131083 C88.8860348,54.2668593 89.7316514,49.9629698 93.0999501,46.4074454 C94.7836828,44.6302574 96.8560547,43.6820984 99.2856745,43.5655521 C101.339712,43.4662293 103.143453,43.929257 104.384654,45.7400311 C104.506885,45.7196498 104.628005,45.7274004 104.640783,45.6938144 C105.226937,44.1385237 106.435357,43.9998737 107.816568,44.125606 C108.663018,44.2039734 109.521413,44.1405331 110.553988,44.1405331 C110.052285,46.2768331 109.584474,48.2759185 109.113051,50.2735686 C108.52023,52.7787406 107.910742,55.2793197 107.337367,57.7893718 C107.014288,59.2005584 107.516547,59.7675018 108.911647,59.5789034 C110.354529,59.385138 111.455442,58.5512289 112.415789,57.4773376 C116.759714,52.6191353 117.307531,41.8727596 107.825458,38.6473542 C100.97913,36.3207335 94.4581038,37.3587422 89.2046689,42.8556529 C85.020478,47.2321686 83.7853888,52.6920485 85.350224,58.5698878 C86.9006137,64.3931856 91.166755,67.2215871 96.6996545,68.1361601 C102.388676,69.0751331 107.674336,67.8855567 112.561911,64.3877314 Z M100.335473,47.6075657 C99.0656586,47.5993183 98.1289243,48.2641491 97.3897043,49.241014 C95.5967971,51.6152867 94.9995317,54.3489585 95.3378895,57.2913228 C95.5420709,59.0567414 96.936616,59.9437566 98.6009029,59.4726912 C100.343529,58.978374 101.373325,57.6831596 101.885029,55.9854872 C102.371175,54.3733586 102.758703,52.7207545 103.068448,51.0615481 C103.402638,49.2634047 102.043096,47.6179772 100.335473,47.6075657 Z" id="Shape" fill="#E5322C" fill-rule="nonzero"></path>
                    <g id="Group" transform="translate(17.000000, 80.000000)" fill="#000000" fill-rule="nonzero">
                        <path d="M12.9371163,0.749666667 C11.7346047,0.928958333 11.4943256,1.10852083 11.4943256,2.23979167 L11.4943256,12.7600417 L10.9763721,12.7600417 L2.70753488,2.97591667 L2.70753488,10.0852917 C2.70753488,11.4673542 3.02204651,11.8264792 4.4464186,11.9878958 L4.4464186,12.4366667 L0.265674419,12.4366667 L0.265674419,11.9878958 C1.61609302,11.8262083 1.89348837,11.5751458 1.89348837,10.4801667 L1.89348837,2.042625 C1.11655814,1.001 0.690976744,0.7499375 0.320930233,0.7499375 L0.320930233,0.301166667 L4.22427907,0.301166667 L10.6802791,8.02072917 L10.6802791,2.65308333 C10.6802791,1.21658333 10.3473488,0.875875 8.97851163,0.750208333 L8.97851163,0.3014375 L12.9371163,0.3014375 L12.9371163,0.749666667 Z" id="Path"></path>
                        <path d="M24.4431628,12.4366667 L13.6216744,12.4366667 L13.6216744,11.9878958 C14.9905116,11.8443542 15.2494884,11.557 15.2494884,10.6234375 L15.2494884,2.02447917 C15.2494884,1.10852083 14.8981395,0.8214375 13.6216744,0.749666667 L13.6216744,0.300895833 L24.2952558,0.300895833 L24.2952558,3.90947917 L23.8325581,3.90947917 C23.4072558,1.50366667 22.4637209,0.911083333 19.4483721,0.911083333 C18.4864186,0.911083333 18.2461395,1.19870833 18.2461395,1.88066667 L18.2461395,5.919875 C20.2068837,5.90227083 21.0206512,5.3275625 21.2427907,3.245125 L21.7236279,3.245125 L21.7236279,9.31314583 L21.2427907,9.31314583 C21.0577674,7.17654167 20.2621395,6.53060417 18.2461395,6.53060417 L18.2461395,10.8750417 C18.2461395,11.6471875 18.5787907,11.880375 19.7813023,11.880375 C21.224093,11.880375 22.2786977,11.6111667 23.148,10.9110625 C23.7770233,10.4083958 24.1099535,9.86970833 24.6650233,8.70295833 L25.1829767,8.70295833 L24.4431628,12.4366667 Z" id="Path"></path>
                        <path d="M34.0992558,3.92708333 C33.7292093,2.7600625 33.4333953,2.22164583 32.8043721,1.5933125 C32.1385116,0.928958333 31.3615814,0.587979167 30.5291163,0.587979167 C29.2526512,0.587979167 28.4941395,1.34197917 28.4941395,2.3651875 C28.4941395,3.245125 28.9197209,3.657875 30.3996279,4.41214583 C31.3060465,4.87879167 32.1940465,5.29154167 33.1375814,5.79447917 C34.3213953,6.4228125 35.1541395,7.5895625 35.1541395,8.95402083 C35.1541395,11.2162917 33.304186,12.7779167 30.5665116,12.7779167 C29.7524651,12.7779167 29.068186,12.65225 28.1617674,12.3470208 C27.7548837,12.2210833 27.5511628,12.1674583 27.4032558,12.1674583 C27.1071628,12.1674583 26.9592558,12.311 26.848186,12.7779167 L26.311814,12.7779167 L26.311814,8.32541667 L26.848186,8.32541667 C27.1626977,9.59995833 27.4216744,10.2282917 27.9580465,10.8926458 C28.6610233,11.7544375 29.5490233,12.1847917 30.6220465,12.1847917 C32.0464186,12.1847917 32.9528372,11.3950417 32.9528372,10.1565208 C32.9528372,9.51004167 32.5272558,9.00764583 31.8982326,8.57647917 C31.2694884,8.14558333 30.4370233,7.78672917 29.6413953,7.40945833 C27.5511628,6.44014583 26.4784186,5.4526875 26.4784186,3.63945833 C26.4784186,1.35958333 28.0135814,0.0311458333 30.5296744,0.0311458333 C31.2510698,0.0311458333 31.8429767,0.138666667 32.6938605,0.443895833 C33.0823256,0.569833333 33.3044651,0.623458333 33.4707907,0.623458333 C33.8037209,0.623458333 33.9332093,0.497520833 34.0626977,0.013 L34.6177674,0.013 L34.6177674,3.92654167 L34.0992558,3.92654167 L34.0992558,3.92708333 Z" id="Path"></path>
                        <path d="M46.9746977,12.4366667 L36.3008372,12.4366667 L36.3008372,11.9878958 C37.6512558,11.8262083 37.891814,11.6290417 37.891814,10.6773333 L37.891814,2.09597917 C37.891814,1.07277083 37.5588837,0.821166667 36.3008372,0.749395833 L36.3008372,0.300625 L42.7384186,0.28275 L42.7384186,0.731520833 C41.1290233,0.803291667 40.8884651,1.03675 40.8884651,2.50872917 L40.8884651,10.83875 C40.8884651,11.6108958 41.2585116,11.8801042 42.4610233,11.8801042 C43.996186,11.8801042 44.8473488,11.557 45.6058605,10.8926458 C46.2348837,10.3358125 46.7157209,9.47429167 47.2152558,8.36116667 L47.7516279,8.36116667 L46.9746977,12.4366667 Z" id="Path"></path>
                    </g>
                    <g id="Group" transform="translate(70.000000, 80.000000)" fill="#000000" fill-rule="nonzero">
                        <path d="M6.5395,12.7012766 L6.5395,12.2429574 L7.11924,12.1881915 C7.71729333,12.1331489 7.95263333,11.9865532 7.95263333,11.583 C7.95263333,11.1797234 7.73533333,10.5380213 7.11924,9.08948936 L3.04247333,9.08948936 L2.80686,9.71293617 C2.58956,10.281617 2.24516,11.051383 2.24516,11.4914468 C2.24516,11.9682979 2.64368,12.1699362 3.71268667,12.243234 L3.71268667,12.7015532 L0.0527533333,12.7015532 L0.0527533333,12.243234 C0.886146667,12.0966383 1.15784,11.7666596 1.84636667,10.0431915 L5.85042667,0.050893617 L6.35773333,0.050893617 L10.3798333,9.62165957 C11.3037,11.840234 11.63006,12.2435106 12.37298,12.2435106 L12.37298,12.7018298 L6.5395,12.7018298 L6.5395,12.7012766 Z M5.01730667,3.91880851 L3.31416667,8.37421277 L6.84727333,8.37421277 L5.01730667,3.91880851 Z" id="Shape"></path>
                        <path d="M18.6785067,6.72431915 C18.4068133,5.93574468 18.2075533,5.58778723 17.8270733,5.22074468 C17.4285533,4.8357234 16.9573267,4.63408511 16.46806,4.63408511 C15.7795333,4.63408511 15.2722267,5.09240426 15.2722267,5.69759574 C15.2722267,6.32104255 15.7795333,6.79761702 17.0114467,7.31125532 C18.8233733,8.08102128 19.5119,8.86959574 19.5119,10.1712553 C19.5119,11.8214255 18.37046,12.958234 16.7217133,12.958234 C16.2144067,12.958234 15.2902667,12.7563191 14.76492,12.5367021 C14.5837,12.4628511 14.4388333,12.426617 14.34836,12.426617 C14.18518,12.426617 14.0763933,12.5549574 13.8771333,12.9399787 L13.42422,12.9399787 L13.42422,9.91457447 L13.9315267,9.91457447 C14.3120067,11.5097021 15.1454,12.3345106 16.4136667,12.3345106 C17.22902,12.3345106 17.77268,11.8579362 17.77268,11.1429362 C17.77268,10.556 17.2834133,10.0976809 16.0331867,9.54780851 C14.20322,8.75895745 13.4603,7.91589362 13.4603,6.70578723 C13.4603,5.16597872 14.6561333,4.02889362 16.30488,4.02889362 C16.72144,4.02889362 17.1382733,4.10246809 17.7180133,4.30382979 C18.00802,4.39565957 18.1709267,4.43244681 18.2797133,4.43244681 C18.5153267,4.43244681 18.6241133,4.34061702 18.7329,4.06568085 L19.13142,4.06568085 L19.13142,6.72404255 L18.6785067,6.72404255 L18.6785067,6.72431915 Z" id="Path"></path>
                        <path d="M25.72668,6.72431915 C25.4547133,5.93574468 25.2554533,5.58778723 24.8749733,5.22074468 C24.4764533,4.8357234 24.0052267,4.63408511 23.5162333,4.63408511 C22.8277067,4.63408511 22.3204,5.09240426 22.3204,5.69759574 C22.3204,6.32104255 22.8277067,6.79761702 24.0598933,7.31125532 C25.87182,8.08102128 26.5600733,8.86959574 26.5600733,10.1712553 C26.5600733,11.8214255 25.4186333,12.958234 23.7698867,12.958234 C23.26258,12.958234 22.33844,12.7563191 21.8130933,12.5367021 C21.6318733,12.4628511 21.4870067,12.426617 21.39626,12.426617 C21.23308,12.426617 21.1245667,12.5549574 20.9253067,12.9399787 L20.47212,12.9399787 L20.47212,9.91457447 L20.9794267,9.91457447 C21.3599067,11.5097021 22.1933,12.3345106 23.46184,12.3345106 C24.27692,12.3345106 24.82058,11.8579362 24.82058,11.1429362 C24.82058,10.556 24.3313133,10.0976809 23.0810867,9.54780851 C21.2513933,8.75895745 20.5082,7.91589362 20.5082,6.70578723 C20.5082,5.16597872 21.7040333,4.02889362 23.35278,4.02889362 C23.76934,4.02889362 24.1861733,4.10246809 24.7659133,4.30382979 C25.0556467,4.39565957 25.2188267,4.43244681 25.3276133,4.43244681 C25.5632267,4.43244681 25.6720133,4.34061702 25.7805267,4.06568085 L26.1790467,4.06568085 L26.1790467,6.72404255 L25.72668,6.72404255 L25.72668,6.72431915 Z" id="Path"></path>
                        <path d="M34.8038067,10.6478298 C33.71676,12.3895532 32.75654,12.958234 31.2163067,12.958234 C29.0239,12.958234 27.5202933,11.1064255 27.5202933,8.59438298 C27.5202933,5.8627234 29.0422133,4.02917021 31.3070533,4.02917021 C32.35802,4.02917021 33.1006667,4.35914894 33.6262867,4.94580851 C34.2965,5.69759574 34.62286,6.85265957 34.6952933,8.2093617 L30.1295333,8.2093617 C30.2380467,9.9513617 30.5100133,11.6380426 32.2855867,11.6380426 C33.06486,11.6380426 33.62656,11.2895319 34.3692067,10.3914255 L34.8038067,10.6478298 Z M32.4665333,7.14585106 C32.4665333,6.19270213 32.4665333,5.80768085 32.3036267,5.45917021 C32.0497,4.90902128 31.8324,4.59729787 31.3070533,4.59729787 C30.47366,4.59729787 30.0387867,5.33055319 30.0387867,7.53059574 L32.4665333,7.53059574 L32.4665333,7.14585106 Z" id="Shape"></path>
                        <path d="M40.9641933,10.8494681 C40.2212733,12.3530426 39.4966667,12.9214468 38.28252,12.9214468 C37.0322933,12.9214468 36.2532933,12.1881915 36.2532933,10.9592766 L36.2532933,5.05589362 L35.2930733,5.05589362 L35.2930733,4.56051064 C36.5976933,3.66240426 37.2679067,2.69044681 38.3188733,1.1503617 L38.7717867,1.1503617 L38.7717867,4.24878723 L40.4929667,4.24878723 L40.4929667,5.05589362 L38.7717867,5.05589362 L38.7717867,10.5192128 C38.7717867,11.2527447 38.9710467,11.6195106 39.4783533,11.6195106 C39.8588333,11.6195106 40.1485667,11.3445745 40.5110067,10.6478298 L40.9641933,10.8494681 Z" id="Path"></path>
                    </g>
                    <g id="Group" transform="translate(115.000000, 80.000000)" fill="#000000" fill-rule="nonzero">
                        <path d="M5.78801471,0.0310869565 C10.0104853,0.0310869565 12.5293824,2.37278261 12.5293824,6.23152174 C12.5293824,8.16117391 11.7330588,9.997 10.3997059,11.1771739 C9.27004412,12.1702609 7.60251471,12.6945 5.73185294,12.6945 L0.00922058824,12.6945 L0.00922058824,12.2262174 C1.08327941,12.188913 1.54626471,11.7582174 1.54626471,10.8586739 L1.54626471,1.75415217 C1.54626471,0.892478261 1.19420588,0.611565217 0.00922058824,0.499369565 L0.00922058824,0.0310869565 L5.78801471,0.0310869565 L5.78801471,0.0310869565 Z M4.54658824,10.8213696 C4.54658824,11.6641087 4.78716176,12.0391304 5.62092647,12.0391304 C6.84307353,12.0391304 7.75116176,11.5895 8.38067647,10.6905217 C8.95514706,9.84778261 9.30636765,8.16173913 9.30636765,6.51328261 C9.30636765,4.90241304 9.08395588,3.51593478 8.54692647,2.56043478 C7.84336765,1.32402174 6.91739706,0.668369565 5.52816176,0.668369565 C4.80588235,0.668369565 4.54630882,0.9685 4.54630882,1.49302174 L4.54630882,10.8213696 L4.54658824,10.8213696 Z" id="Shape"></path>
                        <path d="M22.1601471,11.8890652 C21.4565882,12.6571957 20.8826765,12.9570435 20.0860735,12.9570435 C19.1785441,12.9570435 18.7711618,12.6198913 18.5671912,11.6641087 C17.5484559,12.6009565 16.6965294,12.9570435 15.6221912,12.9570435 C14.4372059,12.9570435 13.585,12.3573478 13.585,10.9714348 C13.585,10.1467826 13.9923824,9.43517391 14.8255882,8.87306522 C15.5297059,8.40478261 16.4003529,8.06734783 18.54875,7.44928261 L18.54875,6.17556522 C18.54875,4.97673913 18.1408088,4.43328261 17.0483088,4.43328261 C16.3813529,4.43328261 15.8440441,4.6768913 15.8440441,5.12623913 C15.8440441,5.23843478 15.8812059,5.36984783 16.0480147,5.55693478 C16.2885882,5.85706522 16.4000735,6.08173913 16.4000735,6.34371739 C16.4000735,6.98071739 15.8812059,7.46793478 15.1402059,7.46793478 C14.3804853,7.46793478 13.9359412,6.98071739 13.9359412,6.19421739 C13.9359412,4.69526087 15.3810588,3.83358696 17.4741324,3.83358696 C19.7334559,3.83358696 21.1039706,4.73284783 21.1039706,6.34371739 L21.1039706,11.2331304 C21.1039706,11.5516304 21.2338971,11.7579348 21.4926324,11.7579348 C21.5853971,11.7579348 21.6412794,11.7392826 21.6966029,11.6824783 L21.8815735,11.4953913 L22.1601471,11.8890652 Z M18.5490294,8.10521739 C17.06675,8.51726087 16.2891471,9.2853913 16.2891471,10.3720217 C16.2891471,11.1963913 16.6965294,11.627087 17.2522794,11.627087 C17.6968235,11.627087 18.1410882,11.4583696 18.5490294,10.8778913 L18.5490294,8.10521739 Z" id="Shape"></path>
                        <path d="M28.5315735,10.8027174 C27.7721324,12.3389783 27.0316912,12.9197391 25.7905441,12.9197391 C24.5122353,12.9197391 23.7161912,12.1705435 23.7161912,10.914913 L23.7161912,4.88319565 L22.7346176,4.88319565 L22.7346176,4.37704348 C24.0676912,3.45941304 24.7533676,2.46632609 25.8274265,0.89276087 L26.2901324,0.89276087 L26.2901324,4.05854348 L28.0495882,4.05854348 L28.0495882,4.88319565 L26.2901324,4.88319565 L26.2901324,10.4652826 C26.2901324,11.2147609 26.4941029,11.5895 27.0124118,11.5895 C27.4016324,11.5895 27.6980882,11.308587 28.0683088,10.5966957 L28.5315735,10.8027174 Z" id="Path"></path>
                        <path d="M37.7552353,11.8890652 C37.0511176,12.6571957 36.4769265,12.9570435 35.6803235,12.9570435 C34.7730735,12.9570435 34.3656912,12.6198913 34.1614412,11.6641087 C33.1429853,12.6009565 32.2913382,12.9570435 31.217,12.9570435 C30.0314559,12.9570435 29.1795294,12.3573478 29.1795294,10.9714348 C29.1795294,10.1467826 29.5869118,9.43517391 30.4203971,8.87306522 C31.1245147,8.40478261 31.9946029,8.06734783 34.143,7.44928261 L34.143,6.17556522 C34.143,4.97673913 33.7356176,4.43328261 32.6431176,4.43328261 C31.9761618,4.43328261 31.4391324,4.6768913 31.4391324,5.12623913 C31.4391324,5.23843478 31.4757353,5.36984783 31.6425441,5.55693478 C31.8836765,5.85706522 31.9946029,6.08173913 31.9946029,6.34371739 C31.9946029,6.98071739 31.4760147,7.46793478 30.7352941,7.46793478 C29.9758529,7.46793478 29.5313088,6.98071739 29.5313088,6.19421739 C29.5313088,4.69526087 30.9758676,3.83358696 33.0686618,3.83358696 C35.3285441,3.83358696 36.6987794,4.73284783 36.6987794,6.34371739 L36.6987794,11.2331304 C36.6987794,11.5516304 36.8284265,11.7579348 37.088,11.7579348 C37.1804853,11.7579348 37.2358088,11.7392826 37.2914118,11.6824783 L37.4772206,11.4953913 L37.7552353,11.8890652 Z M34.1432794,8.10521739 C32.6615588,8.51726087 31.8839559,9.2853913 31.8839559,10.3720217 C31.8839559,11.1963913 32.2913382,11.627087 32.8468088,11.627087 C33.2913529,11.627087 33.7358971,11.4583696 34.1432794,10.8778913 L34.1432794,8.10521739 Z" id="Shape"></path>
                    </g>
                    <g id="Group" transform="translate(159.000000, 80.000000)" fill="#000000" fill-rule="nonzero">
                        <path d="M10.7251622,12.7012766 L0.0435675676,12.7012766 L0.0435675676,12.2429574 C1.395,12.0778298 1.63518018,11.8764681 1.63518018,10.9045106 L1.63518018,2.14057447 C1.63518018,1.09559574 1.30227928,0.838638298 0.0435675676,0.765340426 L0.0435675676,0.307021277 L6.4857027,0.288765957 L6.4857027,0.747085106 C4.8750991,0.820382979 4.63408108,1.05880851 4.63408108,2.56210638 L4.63408108,11.0693617 C4.63408108,11.8579362 5.00468468,12.1328723 6.20754054,12.1328723 C7.74441441,12.1328723 8.59621622,11.8028936 9.3552973,11.1244043 C9.98451351,10.5557234 10.4662703,9.67587234 10.9659009,8.53906383 L11.5026757,8.53906383 L10.7251622,12.7012766 Z" id="Path"></path>
                        <path d="M12.3354865,12.7012766 L12.3354865,12.2612128 C13.187009,12.0595745 13.3165946,11.931234 13.3165946,11.0878936 L13.3165946,5.86244681 C13.3165946,5.0376383 13.1317117,4.85397872 12.3173333,4.68912766 L12.3173333,4.24878723 L15.8901532,4.24878723 L15.8901532,11.1429362 C15.8901532,11.931234 16.1306126,12.1696596 16.7788198,12.2612128 L16.7788198,12.7012766 L12.3354865,12.7012766 Z M14.5753063,2.87410638 C13.7606486,2.87410638 13.1501441,2.26891489 13.1501441,1.4623617 C13.1501441,0.655808511 13.7793604,0.0323617021 14.6121712,0.0323617021 C15.389964,0.0323617021 16.0191803,0.67406383 16.0191803,1.4623617 C16.0194595,2.26891489 15.3902432,2.87410638 14.5753063,2.87410638 Z" id="Shape"></path>
                        <path d="M27.8676036,12.7012766 L27.8676036,12.2612128 C28.5713874,12.2064468 28.7562703,11.9494894 28.7562703,11.1794468 L28.7562703,6.99925532 C28.7562703,5.8627234 28.4789459,5.25753191 27.7751622,5.25753191 C27.4422613,5.25753191 27.0903694,5.38587234 26.7013333,5.71557447 C26.4608739,5.89923404 26.2014234,6.22921277 26.2014234,6.32076596 L26.2014234,11.1791702 C26.2014234,11.8761915 26.405018,12.1876383 27.0532252,12.2609362 L27.0532252,12.701 L22.7581892,12.701 L22.7581892,12.2609362 C23.442982,12.2061702 23.6281441,11.9309574 23.6281441,11.1791702 L23.6281441,6.7793617 C23.6281441,5.67906383 23.3505405,5.25753191 22.6286036,5.25753191 C22.2027027,5.25753191 21.0735766,5.9542766 21.0735766,6.39406383 L21.0735766,11.1794468 C21.0735766,11.8764681 21.2584595,12.1696596 21.9066667,12.2612128 L21.9066667,12.7012766 L17.482045,12.7012766 L17.482045,12.2612128 C18.2964234,12.114617 18.5002973,11.8761915 18.5002973,11.1246809 L18.5002973,5.8627234 C18.5002973,5.00085106 18.277991,4.79921277 17.4630541,4.68940426 L17.4630541,4.24906383 L21.018,4.24906383 L21.018,5.62429787 L21.0732973,5.62429787 C21.7770811,4.50602128 22.5543153,4.02917021 23.7392973,4.02917021 C24.9055676,4.02917021 25.5532162,4.46923404 26.1087027,5.62429787 C27.0710991,4.45097872 27.7748829,4.02917021 28.8302793,4.02917021 C30.3484414,4.02917021 31.3292703,5.00085106 31.3292703,6.63276596 L31.3292703,11.1794468 C31.3292703,11.9680213 31.5328649,12.2244255 32.2545225,12.2612128 L32.2545225,12.7012766 L27.8676036,12.7012766 Z" id="Path"></path>
                        <path d="M32.903009,12.7012766 L32.903009,12.2612128 C33.7548108,12.0595745 33.8843964,11.931234 33.8843964,11.0878936 L33.8843964,5.86244681 C33.8843964,5.0376383 33.6992342,4.85397872 32.8842973,4.68912766 L32.8842973,4.24878723 L36.4573964,4.24878723 L36.4573964,11.1429362 C36.4573964,11.931234 36.6981351,12.1696596 37.3460631,12.2612128 L37.3460631,12.7012766 L32.903009,12.7012766 Z M35.1431081,2.87410638 C34.3287297,2.87410638 33.7176667,2.26891489 33.7176667,1.4623617 C33.7176667,0.655808511 34.3471622,0.0323617021 35.1802523,0.0323617021 C35.9577658,0.0323617021 36.586982,0.67406383 36.586982,1.4623617 C36.586982,2.26891489 35.9577658,2.87410638 35.1431081,2.87410638 Z" id="Shape"></path>
                        <path d="M43.8996306,10.8494681 C43.1405495,12.3530426 42.3999009,12.9214468 41.1593423,12.9214468 C39.8824775,12.9214468 39.0862523,12.1881915 39.0862523,10.9592766 L39.0862523,5.05589362 L38.1048649,5.05589362 L38.1048649,4.56051064 C39.4378649,3.66240426 40.1229369,2.69044681 41.1962072,1.1503617 L41.6595315,1.1503617 L41.6595315,4.24878723 L43.4178739,4.24878723 L43.4178739,5.05589362 L41.6595315,5.05589362 L41.6595315,10.5192128 C41.6595315,11.2527447 41.8628468,11.6195106 42.3814685,11.6195106 C42.7699459,11.6195106 43.065982,11.3445745 43.436027,10.6478298 L43.8996306,10.8494681 Z" id="Path"></path>
                        <path d="M51.7859189,10.6478298 C50.6749459,12.3895532 49.6938378,12.958234 48.1203784,12.958234 C45.8802793,12.958234 44.3442432,11.1064255 44.3442432,8.59438298 C44.3442432,5.8627234 45.8987117,4.02917021 48.2130991,4.02917021 C49.2869279,4.02917021 50.0457297,4.35914894 50.5825045,4.94580851 C51.2672973,5.69759574 51.6007568,6.85265957 51.675045,8.2093617 L47.0096847,8.2093617 C47.1208378,9.9513617 47.3987207,11.6380426 49.2126396,11.6380426 C50.0088649,11.6380426 50.5825045,11.2895319 51.3415856,10.3914255 L51.7859189,10.6478298 Z M49.3978018,7.14585106 C49.3978018,6.19270213 49.3978018,5.80768085 49.2310721,5.45917021 C48.9716216,4.90902128 48.7493153,4.59729787 48.2128198,4.59729787 C47.3612973,4.59729787 46.916964,5.33055319 46.916964,7.53059574 L49.3978018,7.53059574 L49.3978018,7.14585106 L49.3978018,7.14585106 Z" id="Shape"></path>
                        <path d="M60.8381982,12.4811064 C59.6909189,12.6279787 59.2273153,12.7012766 58.3760721,12.9397021 L58.3760721,11.7475745 C57.5063964,12.6642128 56.8950541,12.9579574 55.9142252,12.9579574 C53.9704414,12.9579574 52.5634324,11.1609149 52.5634324,8.64914894 C52.5634324,5.99078723 54.0815946,4.02889362 56.1180991,4.02889362 C56.9696216,4.02889362 57.5248288,4.3226383 58.3210541,5.16570213 L58.3210541,1.81031915 C58.3210541,0.966978723 58.1543243,0.838361702 56.9137658,0.746808511 L56.9137658,0.306744681 L60.8940541,0.306744681 L60.8940541,10.8489149 C60.8940541,11.6189574 61.1347928,11.857383 61.9865946,11.9124255 L61.9865946,12.3339574 L60.8381982,12.4811064 Z M58.3204955,6.19270213 C58.0428919,5.49595745 57.4874054,5.05617021 56.8766216,5.05617021 C55.8027928,5.05617021 55.3026036,6.13765957 55.3026036,8.50282979 C55.3026036,10.8314894 55.7656486,11.9315106 56.747036,11.9315106 C57.1723784,11.9315106 57.5985586,11.7113404 57.9686036,11.2532979 C58.1537658,11.0151489 58.3204955,10.7399362 58.3204955,10.6481064 L58.3204955,6.19270213 L58.3204955,6.19270213 Z" id="Shape"></path>
                    </g>
                </g>
            </g>
        </g>
    </g>
</svg>