<?xml version="1.0" encoding="UTF-8"?>
<svg width="51px" height="51px" viewBox="0 0 51 51" version="1.1" xmlns="http://www.w3.org/2000/svg" xmlns:xlink="http://www.w3.org/1999/xlink">
    <!-- Generator: sketchtool 53.2 (72643) - https://sketchapp.com -->
    <title>43AB14BF-FDA7-4085-8B46-F1D6F77C8FBB</title>
    <desc>Created with sketchtool.</desc>
    <g id="1-Register" stroke="none" stroke-width="1" fill="none" fill-rule="evenodd">
        <g id="1.0-Register" transform="translate(-1276.000000, -228.000000)">
            <g id="signup_form" transform="translate(975.000000, 89.000000)">
                <g id="Non-individual-enabled" transform="translate(302.000000, 140.000000)">
                    <circle id="Oval" stroke="#422873" stroke-width="1.5" fill="#422873" cx="24.5" cy="24.5" r="24.5"></circle>
                    <g id="Non-Indiv-Copy" transform="translate(12.000000, 12.000000)" fill="#FFFFFF" fill-rule="nonzero">
                        <path d="M16.6238272,16.1804162 C16.6238272,16.0780841 16.6291452,15.975752 16.6450989,15.8734199 C15.0975834,15.1570951 14.2148081,14.5700319 14.2148081,14.5700319 L12.2312229,20.9253946 L11.9600088,21.7871387 L11.0719157,19.2342218 C13.1139981,16.3473791 10.9176959,16.2127316 10.5348054,16.2073457 L10.5348054,16.2073457 L10.5294875,16.2073457 L10.5241696,16.2073457 L10.5188517,16.2073457 L10.5135337,16.2073457 L10.5135337,16.2073457 C10.1306433,16.2127316 7.93434109,16.3473791 9.97642352,19.2342218 L9.08833038,21.7871387 L8.81711631,20.9253946 L6.83353104,14.5700319 C6.83353104,14.5700319 5.29133337,15.5879671 2.71745865,16.5843587 C-0.116994306,17.6292235 0.0584971528,19.9936338 0,24.42623 L10.5135337,24.42623 L10.5401234,24.42623 L16.9269489,24.42623 C16.7408216,24.1192337 16.6344631,23.7583783 16.6344631,23.3759794 L16.6344631,16.1804162 L16.6238272,16.1804162 Z" id="Path"></path>
                        <path d="M26.0641488,13.1892965 C25.9457224,12.912236 25.5904431,12.4380363 24.5084562,12.4273802 C24.4976902,12.4273802 24.4869242,12.4273802 24.4761581,12.4273802 C23.8086637,12.4273802 23.0173599,12.603207 22.2368221,12.9228922 C22.0968636,12.9815011 21.9569051,13.0454382 21.8223296,13.1093752 L21.8169466,13.1040471 C21.370156,12.6724721 20.6595975,12.6724721 20.2128069,13.1040471 L18.021918,15.203313 C17.731235,15.4803735 17.5697444,15.8639957 17.5697444,16.2636021 L17.5697444,23.3872532 C17.5697444,23.9626865 18.0380671,24.42623 18.6194331,24.42623 L23.3995543,24.42623 C23.9809203,24.42623 24.449243,23.9626865 24.449243,23.3872532 L24.449243,16.2636021 C24.449243,16.0611349 24.4061789,15.8586676 24.3254336,15.6775127 C24.7883732,15.4217645 25.1920997,15.1287198 25.5043148,14.8196908 C26.2633205,14.0524464 26.1825752,13.466357 26.0641488,13.1892965 Z M23.2003826,15.2406096 C22.7428259,15.4270926 22.2745032,15.5602948 21.8492447,15.6242318 C21.8492447,15.6402161 21.8546277,15.6615284 21.8546277,15.6775127 C21.8546277,16.1517123 21.4670503,16.5406626 20.9825786,16.5406626 C20.5034899,16.5406626 20.1105295,16.1570404 20.1105295,15.6775127 C20.1105295,15.203313 20.4981069,14.8143627 20.9825786,14.8143627 C21.2678786,14.8143627 21.5208805,14.952893 21.6823711,15.1606883 C22.0860976,15.0914232 22.5221221,14.9688772 22.9527637,14.7930504 C23.1034882,14.7291134 23.2434467,14.6651763 23.3780222,14.6012393 L22.50059,13.7540736 C22.5275051,13.7434174 22.5490372,13.7327613 22.5759523,13.7221051 C23.2434467,13.4503727 23.9324732,13.2958582 24.4761581,13.2958582 C24.4869242,13.2958582 24.4923072,13.2958582 24.5030732,13.2958582 C25.0252261,13.3011863 25.2190148,13.4397165 25.2513129,13.5143097 C25.3428242,13.7487455 24.7614581,14.6065674 23.2003826,15.2406096 Z" id="Shape"></path>
                        <path d="M6.05545146,10.720909 C6.28441768,12.2165056 7.42392399,14.1209703 9.30357693,14.7934508 C10.0756723,15.0678229 10.9223149,15.0678229 11.6890855,14.788071 C13.5367896,14.1155905 14.7188943,12.2165056 14.9478605,10.720909 C15.1981259,10.6993896 15.5229385,10.3496997 15.874375,9.09081627 C16.3589314,7.36926621 15.8424262,7.11641354 15.4111178,7.15407245 C15.4963145,6.91735932 15.5548873,6.68064618 15.5974856,6.44393305 C16.3323074,1.98404243 14.1597907,1.82802696 14.1597907,1.82802696 C14.1597907,1.82802696 13.7977046,1.12864724 12.849891,0.596042696 C12.2162403,0.214073776 11.3269994,-0.08181764 10.1608691,0.0203993947 C9.78280855,0.0365389265 9.42604723,0.111856742 9.09058509,0.224833464 L9.09058509,0.224833464 C8.65927663,0.37008925 8.27056653,0.585283008 7.91380521,0.832755829 C7.47717195,1.11250771 7.06716267,1.45681772 6.69975176,1.84416649 C6.12467381,2.43594932 5.61349341,3.205267 5.38985198,4.16825907 C5.20348413,4.88377831 5.24608249,5.63157662 5.40050157,6.43855321 L5.40050157,6.43855321 C5.44309994,6.67526634 5.50699749,6.91197947 5.58686943,7.14869261 C5.15556096,7.10565385 4.63905577,7.36388636 5.12361219,9.08543642 C5.48037351,10.3496997 5.80518606,10.7047694 6.05545146,10.720909 Z" id="Path"></path>
                    </g>
                </g>
            </g>
        </g>
    </g>
</svg>