<?xml version="1.0" encoding="UTF-8"?>
<svg width="396px" height="262px" viewBox="0 0 396 262" version="1.1" xmlns="http://www.w3.org/2000/svg" xmlns:xlink="http://www.w3.org/1999/xlink">
    <!-- Generator: sketchtool 52.5 (67469) - http://www.bohemiancoding.com/sketch -->
    <title>CAC400E4-4034-46CA-B686-72697BADD7D7@2x</title>
    <desc>Created with sketchtool.</desc>
    <defs>
        <polygon id="path-1" points="0.11 58.026 0.11 58.03 100.796 116.625 100.808 116.631 100.809 116.631 100.811 116.632 201.499 58.728 100.799 0.128 100.796 0.126"></polygon>
        <linearGradient x1="22.9443429%" y1="23.2765943%" x2="70.9789183%" y2="70.7230416%" id="linearGradient-3">
            <stop stop-color="#FFFFFF" offset="0%"></stop>
            <stop stop-color="#DBDBDD" offset="100%"></stop>
        </linearGradient>
        <polygon id="path-4" points="101.138 0.587 101.136 0.586 101.11 0.601 0.494 58.491 101.11 117.044 101.134 117.057 101.134 117.057 101.138 117.058 201.8 59.172 201.8 59.166 101.14 0.586"></polygon>
        <linearGradient x1="25.1493218%" y1="20.0205173%" x2="70.6289019%" y2="74.8956835%" id="linearGradient-6">
            <stop stop-color="#FFFFFF" offset="0%"></stop>
            <stop stop-color="#DBDBDD" offset="100%"></stop>
        </linearGradient>
        <polygon id="path-7" points="0.026 58.77 100.699 117.357 100.727 117.373 100.73 117.371 100.732 117.373 201.406 59.479 201.406 59.478 100.704 0.875 100.702 0.876 100.699 0.874"></polygon>
        <linearGradient x1="25.6794408%" y1="16.3682702%" x2="68.5688069%" y2="75.678828%" id="linearGradient-9">
            <stop stop-color="#FFFFFF" offset="0%"></stop>
            <stop stop-color="#DBDBDD" offset="100%"></stop>
        </linearGradient>
        <polygon id="path-10" points="101.419 116.935 101.419 116.934 101.423 116.936 101.457 116.917 202.097 59.034 101.457 0.467 101.405 0.438 101.405 0.439 101.4 0.437 101.4 0.438 0.722 58.334"></polygon>
        <linearGradient x1="21.8787205%" y1="19.2971345%" x2="70.7740978%" y2="72.6772802%" id="linearGradient-12">
            <stop stop-color="#FFFFFF" offset="0%"></stop>
            <stop stop-color="#DBDBDD" offset="100%"></stop>
        </linearGradient>
        <polygon id="path-13" points="0.457 174.429 101.104 116.552 101.104 116.548 101.101 116.545 101.101 116.525 101.101 0.043 101.097 0.046 101.097 0.042 0.454 57.919 0.454 57.955 0.454 174.428 0.457 174.427"></polygon>
        <polygon id="path-15" points="100.796 0.216 0.181 58.088 0.11 58.128 0.11 174.567 0.122 174.573 0.124 174.572 0.126 174.574 100.8 116.674 100.8 116.639 100.8 0.216 100.796 0.218"></polygon>
        <polygon id="path-17" points="101.4 0.546 0.813 58.422 0.699 58.487 0.699 174.897 0.701 174.897 0.701 174.886 0.704 174.884 0.704 174.897 0.704 174.887 101.405 116.979 101.405 116.96 101.405 0.547 101.4 0.55"></polygon>
        <path d="M0.185,168.814 L0.185,52.507 C15.394,43.863 32.37,33.685 47.579,25.041 C62.708,16.442 75.966,8.641 91.097,0.042 C91.097,19.455 91.11,108.629 91.11,116.524 C104.519,124.081 177.345,166.716 191.804,175.216 C191.804,175.216 120.196,172.803 0.185,168.814 Z" id="path-19"></path>
        <path d="M0.513,169.293 L0.513,52.986 C15.722,44.342 32.698,34.164 47.907,25.52 C63.036,16.921 76.294,9.12 91.425,0.521 C91.425,19.934 91.438,109.107 91.438,117.004 C104.847,124.56 177.673,167.195 192.132,175.695 C192.132,175.695 120.524,173.281 0.513,169.293 Z" id="path-21"></path>
        <path d="M0.247,53.358 C8.421,48.707 24.806,39.125 35.188,33.232 C42.675,28.983 50.622,24.419 57.833,20.287 C64.948,16.248 91.743,0.875 91.747,0.875 C91.747,0.875 107.095,9.804 122.444,18.555 C130.921,23.529 142.716,30.335 150.132,34.707 C158.515,39.647 182.628,53.743 192.405,59.503 C161.669,58.357 122.823,57.169 91.755,55.925" id="path-23"></path>
    </defs>
    <g id="4-Home" stroke="none" stroke-width="1" fill="none" fill-rule="evenodd" opacity="0.25734747">
        <g id="4.0-Home_No-Assets" transform="translate(-1524.000000, -1224.000000)">
            <g id="cubes_bottom_right" transform="translate(1523.000000, 1223.000000)">
                <g id="Group-3" transform="translate(303.000000, 1.675000)">
                    <mask id="mask-2" fill="white">
                        <use xlink:href="#path-1"></use>
                    </mask>
                    <g id="Clip-2"></g>
                    <polygon id="Fill-1" fill="url(#linearGradient-3)" mask="url(#mask-2)" points="0.11 58.026 0.11 58.03 100.796 116.625 100.808 116.631 100.809 116.631 100.811 116.632 201.499 58.728 100.799 0.128 100.796 0.126"></polygon>
                </g>
                <g id="Group-6" transform="translate(202.000000, 175.675000)">
                    <mask id="mask-5" fill="white">
                        <use xlink:href="#path-4"></use>
                    </mask>
                    <g id="Clip-5"></g>
                    <polygon id="Fill-4" fill="url(#linearGradient-6)" mask="url(#mask-5)" points="101.138 0.587 101.136 0.586 101.11 0.601 0.494 58.491 101.11 117.044 101.134 117.057 101.134 117.057 101.138 117.058 201.8 59.172 201.8 59.166 101.14 0.586"></polygon>
                </g>
                <g id="Group-9" transform="translate(1.000000, 174.675000)">
                    <mask id="mask-8" fill="white">
                        <use xlink:href="#path-7"></use>
                    </mask>
                    <g id="Clip-8"></g>
                    <polygon id="Fill-7" fill="url(#linearGradient-9)" mask="url(#mask-8)" points="0.026 58.77 100.699 117.357 100.727 117.373 100.73 117.371 100.732 117.373 201.406 59.479 201.406 59.478 100.704 0.875 100.702 0.876 100.699 0.874"></polygon>
                </g>
                <g id="Group-18" transform="translate(101.000000, 0.675000)">
                    <mask id="mask-11" fill="white">
                        <use xlink:href="#path-10"></use>
                    </mask>
                    <g id="Clip-17"></g>
                    <polygon id="Fill-16" fill="url(#linearGradient-12)" mask="url(#mask-11)" points="101.419 116.935 101.419 116.934 101.423 116.936 101.457 116.917 202.097 59.034 101.457 0.467 101.405 0.438 101.405 0.439 101.4 0.437 101.4 0.438 0.722 58.334"></polygon>
                </g>
                <polygon id="Fill-19" fill="#BBBDBF" points="303.1143 59.7185 303.1143 59.7195 303.1103 59.7175 303.1103 176.2075 303.1673 176.2415 403.7963 234.8015 403.7963 234.7995 403.8003 234.8015 403.8003 118.3435 403.8003 118.3125"></polygon>
                <polygon id="Fill-20" fill="#BBBDBF" points="202.4658 234.1857 202.4638 234.1847 202.4538 234.1897 202.4538 350.6647 202.4818 350.6827 303.1008 409.2367 303.1008 409.2347 303.1048 409.2367 303.1048 292.8097 303.1048 292.7507 202.4678 234.1857"></polygon>
                <polygon id="Fill-21" fill="#BBBDBF" points="1.0045 233.4625 0.9995 233.4595 0.9995 349.9685 1.1165 350.0345 101.6995 408.5725 101.6995 408.5695 101.7035 408.5725 101.7035 292.1635 101.7035 292.0645 1.0045 233.4595"></polygon>
                <polygon id="Fill-24" fill="#BBBDBF" points="101.7012 59.0217 101.7012 175.5107 101.7232 175.5227 202.4002 234.1117 202.4002 234.1097 202.4052 234.1117 202.4052 117.6247 202.4012 117.6237 101.7042 59.0217 101.7042 59.0237"></polygon>
                <g id="Group-27" transform="translate(202.000000, 59.675000)">
                    <mask id="mask-14" fill="white">
                        <use xlink:href="#path-13"></use>
                    </mask>
                    <g id="Clip-26"></g>
                    <polygon id="Fill-25" mask="url(#mask-14)" points="0.457 174.429 101.104 116.552 101.104 116.548 101.101 116.545 101.101 116.525 101.101 0.043 101.097 0.046 101.097 0.042 0.454 57.919 0.454 57.955 0.454 174.428 0.457 174.427"></polygon>
                </g>
                <g id="Group-36" transform="translate(303.000000, 234.675000)">
                    <mask id="mask-16" fill="white">
                        <use xlink:href="#path-15"></use>
                    </mask>
                    <g id="Clip-35"></g>
                    <polygon id="Fill-34" mask="url(#mask-16)" points="100.796 0.216 0.181 58.088 0.11 58.128 0.11 174.567 0.122 174.573 0.124 174.572 0.126 174.574 100.8 116.674 100.8 116.639 100.8 0.216 100.796 0.218"></polygon>
                </g>
                <g id="Group-39" transform="translate(101.000000, 233.675000)">
                    <mask id="mask-18" fill="white">
                        <use xlink:href="#path-17"></use>
                    </mask>
                    <g id="Clip-38"></g>
                    <polygon id="Fill-37" mask="url(#mask-18)" points="101.4 0.546 0.813 58.422 0.699 58.487 0.699 174.897 0.701 174.897 0.701 174.886 0.704 174.884 0.704 174.897 0.704 174.887 101.405 116.979 101.405 116.96 101.405 0.547 101.4 0.55"></polygon>
                </g>
                <g id="Group-52" transform="translate(10.000000, 59.675000)">
                    <g id="Group-45" transform="translate(202.000000, 0.000000)">
                        <mask id="mask-20" fill="white">
                            <use xlink:href="#path-19"></use>
                        </mask>
                        <g id="Clip-44"></g>
                        <path d="M0.185,168.814 C120.196,172.803 191.804,175.216 191.804,175.216 C177.345,166.716 104.519,124.081 91.11,116.524 C91.11,108.629 91.097,19.455 91.097,0.042 C75.966,8.641 62.708,16.442 47.579,25.041 C32.37,33.685 15.394,43.863 0.185,52.507 L0.185,168.814 Z" id="Fill-43" mask="url(#mask-20)"></path>
                    </g>
                    <g id="Group-48" transform="translate(101.000000, 174.000000)">
                        <mask id="mask-22" fill="white">
                            <use xlink:href="#path-21"></use>
                        </mask>
                        <g id="Clip-47"></g>
                        <path d="M0.513,169.293 C120.524,173.281 192.132,175.695 192.132,175.695 C177.673,167.195 104.847,124.56 91.438,117.004 C91.438,109.107 91.425,19.934 91.425,0.521 C76.294,9.12 63.036,16.921 47.907,25.52 C32.698,34.164 15.722,44.342 0.513,52.986 L0.513,169.293 Z" id="Fill-46" mask="url(#mask-22)"></path>
                    </g>
                    <g id="Group-51" transform="translate(0.000000, 115.000000)">
                        <mask id="mask-24" fill="white">
                            <use xlink:href="#path-23"></use>
                        </mask>
                        <g id="Clip-50"></g>
                        <path d="M0.247,53.358 C32.55,54.158 60.753,54.683 91.755,55.925 C122.823,57.169 161.669,58.357 192.405,59.503 C182.628,53.743 158.515,39.647 150.132,34.707 C142.716,30.335 130.921,23.529 122.444,18.555 C107.095,9.804 91.747,0.875 91.747,0.875 C91.743,0.875 64.948,16.248 57.833,20.287 C50.622,24.419 42.675,28.983 35.188,33.232 C24.806,39.125 8.421,48.707 0.247,53.358" id="Fill-49" mask="url(#mask-24)"></path>
                    </g>
                </g>
            </g>
        </g>
    </g>
</svg>