<?xml version="1.0" encoding="UTF-8"?>
<svg width="51px" height="51px" viewBox="0 0 51 51" version="1.1" xmlns="http://www.w3.org/2000/svg" xmlns:xlink="http://www.w3.org/1999/xlink">
    <!-- Generator: sketchtool 53.2 (72643) - https://sketchapp.com -->
    <title>B4FD65DC-D018-46D4-A91F-FEA4636B63CC@3x</title>
    <desc>Created with sketchtool.</desc>
    <g id="1-Register" stroke="none" stroke-width="1" fill="none" fill-rule="evenodd">
        <g id="1.0-Register" transform="translate(-1150.000000, -228.000000)">
            <g id="signup_form" transform="translate(975.000000, 89.000000)">
                <g id="Individual-enabled" transform="translate(176.000000, 140.000000)">
                    <circle id="Oval" stroke="#422873" fill="#422873" cx="24.5" cy="24.5" r="24.5"></circle>
                    <path d="M31.4056,29.1556 L27.5844,27.2452 C27.224,27.0648 27,26.7024 27,26.2992 L27,24.9468 C27.0916,24.8348 27.188,24.7072 27.2876,24.5664 C27.7832,23.8664 28.1804,23.0872 28.4692,22.2468 C29.0336,21.988 29.4,21.43 29.4,20.8 L29.4,19.2 C29.4,18.8148 29.256,18.4416 29,18.15 L29,16.0224 C29.0224,15.8024 29.1104,14.4928 28.1632,13.4124 C27.3416,12.4752 26.0084,12 24.2,12 C22.3916,12 21.0584,12.4752 20.2368,13.412 C19.2896,14.4924 19.3776,15.8024 19.4,16.0224 L19.4,18.15 C19.144,18.4416 19,18.8148 19,19.2 L19,20.8 C19,21.2868 19.2212,21.7408 19.5988,22.0436 C19.9652,23.4944 20.732,24.5876 21,24.9384 L21,26.262 C21,26.6492 20.7888,27.0044 20.4492,27.19 L16.8808,29.1364 C15.7204,29.7696 15,30.9832 15,32.3048 L15,33.6 C15,35.4984 21.018,36 24.2,36 C27.382,36 33.4,35.4984 33.4,33.6 L33.4,32.3828 C33.4,31.0076 32.6356,29.7708 31.4056,29.1556 Z" id="Individual-Copy" fill="#FFFFFF" fill-rule="nonzero"></path>
                </g>
            </g>
        </g>
    </g>
</svg>